<svg width="37" height="61" viewBox="0 0 37 61" fill="none" xmlns="http://www.w3.org/2000/svg">
<path d="M0.476807 22.0791V44.1582L18.4902 44.1511L36.4985 44.1405L36.5135 22.0685L36.5234 1.90735e-05H18.5001H0.476807V22.0791ZM16.2596 1.75002C16.5185 1.84231 16.5783 1.91685 16.3841 1.91685C16.1501 1.91685 15.6473 2.02335 15.3485 2.14048C14.8257 2.33572 14.522 2.64454 14.1287 3.36513C13.7653 4.02892 13.3022 4.45489 12.7346 4.64302C12.4907 4.72466 12.3861 4.73886 12.0028 4.73886C11.6343 4.73886 11.5198 4.72466 11.3456 4.65722C11.0916 4.56138 10.8975 4.36969 10.8527 4.16381C10.8228 4.01472 10.8228 4.01117 11.007 3.95438C11.1116 3.92598 11.3555 3.89048 11.5497 3.87984C11.8185 3.86209 11.938 3.83724 12.0426 3.77689C12.2119 3.67751 12.3612 3.6704 12.5952 3.75205C12.884 3.84789 12.9686 3.79464 13.347 3.25864C13.7752 2.65874 14.0739 2.34637 14.4723 2.07304C15.0946 1.65063 15.6672 1.54769 16.2596 1.75002ZM21.9255 1.76067C22.2392 1.86006 22.762 2.20438 23.0507 2.50256C23.1603 2.61969 23.4242 2.94627 23.6283 3.22669C23.8324 3.50712 24.0415 3.7556 24.0863 3.77689C24.1511 3.80529 24.2158 3.80174 24.3353 3.76625C24.639 3.67751 24.7933 3.67751 24.9527 3.77335C25.0622 3.84079 25.1767 3.86209 25.4505 3.87984C25.6447 3.89048 25.8887 3.92598 25.9932 3.95438C26.1774 4.01117 26.1774 4.01472 26.1476 4.16381C26.1028 4.36969 25.9086 4.56138 25.6547 4.65722C25.4854 4.72466 25.3659 4.73886 24.9975 4.73886C24.6141 4.73886 24.5095 4.72466 24.2656 4.64302C23.693 4.45134 23.2399 4.03602 22.8566 3.34028C22.7421 3.1344 22.5877 2.87882 22.5081 2.77233C22.3388 2.53095 21.9305 2.23633 21.6019 2.11919C21.3331 2.01979 20.8252 1.91685 20.6211 1.91685C20.3373 1.91685 20.5763 1.76067 20.9796 1.68258C21.2733 1.62578 21.587 1.65063 21.9255 1.76067ZM20.3174 2.65874C21.5372 2.88947 22.1944 3.38998 22.3338 4.20996C22.3686 4.41584 22.3985 4.45844 22.6425 4.65722C23.4042 5.28551 24.4249 5.65823 25.2116 5.59434C25.6148 5.55884 25.9833 5.45235 26.3517 5.26777C27.0039 4.93764 27.7557 4.8418 28.388 5.00864C29.0502 5.18612 29.6078 5.77892 29.9016 6.61665C30.0858 7.13846 30.0958 7.26979 29.9813 7.71706C29.9116 7.97618 29.8966 8.16787 29.9165 8.44474C29.9663 9.21858 30.27 9.54515 31.1065 9.74038C31.6392 9.86817 31.923 9.99241 32.3462 10.2906C32.6449 10.5036 32.7694 10.6243 32.9287 10.8621C33.2474 11.3306 33.3121 11.5614 33.3071 12.2465C33.3021 13.0522 33.1129 13.6912 32.6648 14.4189C31.8384 15.7571 30.275 16.5593 28.1939 16.7191C27.5715 16.7688 26.7898 16.7226 26.5509 16.6232C26.1426 16.4529 25.9136 16.0517 26.0131 15.6755C26.0729 15.4447 26.1476 15.3205 26.4164 15.0188C26.6504 14.7526 26.7002 14.5999 26.6056 14.4579C26.4662 14.2485 25.814 14.1243 25.4804 14.2485C25.0871 14.3976 24.7435 14.8129 24.6888 15.1998C24.639 15.5938 24.9228 16.2008 25.3808 16.6729C25.7991 17.1096 26.9342 17.3616 28.1391 17.287C29.7472 17.1876 30.9571 16.8149 31.9379 16.1192C33.3718 15.104 34.0738 13.5386 33.9643 11.6075C33.9444 11.2845 33.9095 10.9118 33.8846 10.7733C33.8597 10.6385 33.8498 10.5178 33.8597 10.5107C33.9344 10.4574 34.3925 11.4407 34.5667 12.0299C34.6862 12.4275 34.7012 12.5553 34.7012 13.1871C34.7061 13.7302 34.6813 13.9716 34.6165 14.2095C34.278 15.3986 33.3569 16.46 31.9678 17.2551C31.0567 17.7769 29.7423 18.3129 28.8809 18.5081C28.3432 18.6324 27.5616 18.7353 26.8496 18.7744C26.3467 18.8028 26.2322 18.8205 26.0679 18.8986C25.7094 19.0654 25.4704 19.4914 25.4704 19.9493V20.18L25.7841 20.3078C26.8396 20.7515 27.3524 21.497 27.1682 22.3276C27.0388 22.8991 26.6703 23.2292 25.8389 23.5203C25.1369 23.7652 24.2905 23.8966 23.0159 23.9534L22.4832 23.9782L23.235 24.4397C23.7279 24.7449 24.0266 24.9047 24.1162 24.9118C24.1909 24.9153 24.4697 24.8834 24.7336 24.8337C26.0828 24.5888 27.2031 23.996 27.7308 23.2434C28.0893 22.7358 28.1739 22.4554 28.1789 21.7881C28.1839 21.4792 28.1988 21.2272 28.2188 21.2272C28.2984 21.2272 28.7565 21.9726 28.856 22.2708C29.1647 23.1724 28.8262 24.1876 27.935 25.0183L27.6561 25.2774L27.8453 25.2206C28.7366 24.9579 29.4435 24.0918 29.7323 22.9204C29.7721 22.7429 29.8369 22.3205 29.8667 21.9904L29.9265 21.3869L30.1754 21.3266C30.6683 21.2095 31.0965 21.2591 31.0965 21.4331C31.0965 21.5076 30.9322 21.7703 30.8077 21.8945C30.743 21.962 30.7032 22.0862 30.6783 22.2921C30.6335 22.6861 30.4293 23.3925 30.2451 23.7972C30.0759 24.1663 29.7024 24.7414 29.4386 25.0325C29.1747 25.3271 28.642 25.7105 28.2436 25.8986C28.0445 25.9909 27.8752 26.069 27.8653 26.0761C27.8553 26.0832 27.8852 26.1542 27.935 26.2394C27.9798 26.3246 28.0296 26.4098 28.0445 26.4311C28.0594 26.4559 27.8603 26.463 27.3972 26.4524C25.9235 26.4169 25.0323 26.6263 24.7983 27.0629C24.7236 27.2013 24.7186 27.251 24.7734 27.4818C24.8083 27.6238 24.8531 27.7551 24.873 27.7693C24.9527 27.8332 26.8396 27.6521 27.5466 27.5102C28.3781 27.3469 28.7316 27.1729 28.9058 26.8357C29.0303 26.6014 29.1797 26.4914 29.2892 26.5588C29.3241 26.5801 29.3888 26.6831 29.4336 26.786C29.5033 26.96 29.5033 26.9955 29.4336 27.1658C29.2693 27.5634 28.5673 27.9255 27.4072 28.2024C26.9043 28.323 25.7791 28.5112 25.2862 28.5573C25.1468 28.5715 24.9975 28.607 24.9576 28.639C24.8381 28.7348 24.7684 28.9762 24.8132 29.1288C24.863 29.3063 24.9228 29.3134 25.6646 29.214C26.3467 29.1217 26.7102 29.1324 27.0189 29.2566C27.3176 29.3738 27.5018 29.5512 27.5616 29.782C27.6362 30.0588 27.686 30.0766 28.2885 30.0517L28.7963 30.0304L28.8511 30.1405C28.9208 30.2825 28.9208 30.5274 28.8511 30.6587C28.7067 30.9321 28.1789 31.1628 27.462 31.2657L27.0039 31.3296L27.1732 31.4219C27.4221 31.5568 27.8553 31.7201 28.159 31.7911C28.5723 31.8905 29.2842 31.8834 29.7174 31.7733C30.1754 31.6633 30.7231 31.3971 31.1164 31.0918C31.44 30.8398 31.44 30.8398 31.4749 30.9392C31.4948 30.9924 31.4849 31.1734 31.455 31.3367C31.3206 32.0467 30.7779 32.4726 29.7921 32.6395C29.2145 32.7353 28.5274 32.6963 27.0637 32.4833C26.6654 32.4265 26.3318 32.3874 26.3218 32.3945C26.3119 32.4016 26.3368 32.4371 26.3866 32.4762C26.526 32.5827 26.6654 32.9305 26.7102 33.2571C26.76 33.6547 26.7102 34.1374 26.521 35.0178C26.3218 35.9407 26.1675 36.8104 26.1675 37.002C26.1675 37.0837 26.1525 37.1618 26.1376 37.176C26.1028 37.2008 25.5202 36.9985 25.5202 36.963C25.5202 36.9524 25.575 36.6293 25.6447 36.246C25.8339 35.1704 25.9285 34.3291 25.9335 33.6689V33.0654L25.7293 32.6253C25.4904 32.1248 25.2414 31.7556 24.9825 31.5107C24.8033 31.3438 24.4199 31.1309 24.2954 31.1309C24.2606 31.1309 24.1909 31.1202 24.1411 31.106C24.0764 31.0883 24.0913 31.1202 24.2058 31.2196C24.5992 31.5781 24.7734 31.9828 24.8083 32.6253C24.8431 33.2252 24.7734 33.6511 24.5344 34.3078C24.3502 34.8048 24.3502 34.8083 24.3502 35.5502C24.3502 36.143 24.3701 36.3489 24.4398 36.5548C24.7884 37.5806 25.5153 38.1521 26.6903 38.3261L27.0537 38.3793L27.3126 38.2515C27.7059 38.0563 28.0246 38.0102 28.3233 38.1025C28.5474 38.1699 28.6768 38.2799 28.8809 38.5781C29.0054 38.7662 29.1 38.855 29.2145 38.8976C29.4684 38.9934 29.5829 39.0928 29.7024 39.3164C29.9613 39.8028 29.9464 40.2536 29.6676 40.6724C29.4485 40.999 28.8411 41.4037 28.2337 41.6273C27.6711 41.8332 27.0786 41.9894 26.3716 42.1136C25.819 42.2166 24.9726 42.323 24.9377 42.2982C24.9228 42.2911 24.9029 42.2201 24.8879 42.142C24.863 42.0036 24.8581 42 24.6788 42.0142C23.8474 42.0852 23.3246 42.1207 23.3047 42.103C23.2897 42.0959 23.2798 42.0426 23.2798 41.9894C23.2798 41.8829 23.2051 41.8509 22.9661 41.8509C22.5031 41.8509 22.1994 42.0178 22.1446 42.2982L22.1098 42.4721L21.2385 42.4828C20.3921 42.4934 19.6203 42.4473 19.4411 42.3834C19.3963 42.3621 19.2868 42.3017 19.2071 42.2449C19.0279 42.1172 18.8486 42.0781 18.6545 42.1278C18.5499 42.1562 18.4603 42.1527 18.3607 42.1278C18.1715 42.0746 17.9724 42.1172 17.7931 42.2449C17.7135 42.3017 17.6039 42.3621 17.5591 42.3834C17.3799 42.4473 16.6082 42.4934 15.7618 42.4828L14.8905 42.4721L14.8656 42.3266C14.8108 42.0426 14.5868 41.8935 14.1536 41.8616C13.8798 41.8403 13.6408 41.8935 13.6956 41.961C13.7155 41.9787 13.7155 42.0213 13.7005 42.0568C13.6707 42.1243 13.591 42.1207 12.3214 42.0142C12.1422 42 12.1372 42.0036 12.1123 42.142C12.0974 42.2201 12.0725 42.2911 12.0575 42.3017C11.9878 42.3514 10.4245 42.0994 9.70753 41.9184C8.25371 41.5563 7.32765 40.9671 7.14842 40.2855C7.05382 39.927 7.11854 39.5898 7.36748 39.2029C7.4571 39.0644 7.53676 39.0005 7.70106 38.9366C7.87532 38.8656 7.95498 38.8017 8.11929 38.5781C8.35329 38.2586 8.46282 38.1663 8.67691 38.1025C8.97564 38.0102 9.29428 38.0599 9.68761 38.2515L9.94651 38.3793L10.31 38.3261C11.4899 38.1521 12.2268 37.57 12.5604 36.5441C12.6301 36.317 12.65 36.1146 12.65 35.5147C12.65 34.8474 12.64 34.7444 12.5405 34.5208C12.2766 33.9245 12.2069 33.5659 12.2069 32.8525C12.2019 32.3093 12.2218 32.1319 12.2915 31.9508C12.4011 31.6811 12.5803 31.4113 12.7844 31.2267C12.9388 31.0883 12.9238 31.0705 12.6898 31.1344C12.1272 31.2835 11.6941 31.7414 11.2709 32.6288L11.0618 33.0654L11.0667 33.6866C11.0717 34.4179 11.2709 35.9939 11.4601 36.853C11.4899 36.9843 11.485 36.9843 11.1912 37.0908C11.0269 37.1511 10.8825 37.1866 10.8626 37.176C10.8477 37.1618 10.8327 37.0837 10.8327 37.002C10.8327 36.8175 10.6784 35.9549 10.4842 35.0497C10.2801 34.0984 10.2253 33.6298 10.2851 33.25C10.3398 32.9128 10.4792 32.5791 10.6137 32.4762C10.6635 32.4371 10.6884 32.4016 10.6784 32.3945C10.6684 32.3874 10.2801 32.4336 9.81706 32.4975C8.37818 32.6998 7.77575 32.7353 7.20816 32.6395C6.29704 32.4868 5.75933 32.1106 5.57511 31.4894C5.51039 31.2586 5.48051 30.9108 5.5303 30.8753C5.54524 30.8682 5.75435 30.996 5.99333 31.1628C6.72522 31.674 7.25795 31.8514 8.0695 31.855C8.68189 31.8585 9.06028 31.7769 9.62289 31.5142L10.0112 31.3332L9.55816 31.2693C9.30922 31.2338 9.00054 31.1699 8.87109 31.1273C8.57236 31.035 8.24873 30.8291 8.15912 30.68C8.07945 30.5416 8.07448 30.2931 8.14916 30.1405L8.20392 30.0269L8.68687 30.0517C9.30424 30.0801 9.35901 30.0624 9.43369 29.7926C9.53327 29.4234 9.92162 29.1892 10.4792 29.1537C10.6585 29.143 10.9672 29.1643 11.3356 29.214C12.0824 29.3134 12.1422 29.3063 12.187 29.1253C12.2268 28.9549 12.1471 28.7064 12.0326 28.6354C11.9878 28.607 11.7837 28.5644 11.5796 28.5396C9.31918 28.284 7.77077 27.748 7.54174 27.1445C7.482 26.9813 7.55668 26.7044 7.69609 26.5801L7.78073 26.502L7.9052 26.5979C7.9749 26.6476 8.05456 26.7576 8.08941 26.8357C8.21886 27.1516 8.66198 27.3611 9.54323 27.5244C10.305 27.6699 12.0476 27.8332 12.1272 27.7693C12.2119 27.7018 12.2716 27.2404 12.2218 27.1019C12.0476 26.6476 11.1066 26.4169 9.60297 26.4524C9.13994 26.463 8.94079 26.4559 8.95573 26.4311C8.97066 26.4098 9.02045 26.3246 9.06526 26.2394C9.11505 26.1542 9.14492 26.0832 9.13496 26.0761C9.125 26.0725 8.95573 25.9944 8.76155 25.9021C7.74587 25.4265 6.97914 24.5249 6.55594 23.3038C6.45138 22.9949 6.30202 22.3312 6.30202 22.1572C6.30202 22.0969 6.2124 21.9265 6.10287 21.7774C5.8838 21.4792 5.86388 21.4011 5.98835 21.3124C6.05806 21.2662 6.13274 21.2556 6.40657 21.2733C6.58581 21.284 6.81981 21.3159 6.91939 21.3479C7.09863 21.4011 7.09863 21.4047 7.09863 21.607C7.09863 21.9087 7.18825 22.5832 7.27289 22.9382C7.5517 24.0883 8.26865 24.9579 9.15488 25.2206L9.34407 25.2774L9.06526 25.0183C8.63708 24.6172 8.26865 24.0705 8.12426 23.6268C7.9749 23.1724 8.00477 22.569 8.19895 22.1075C8.29852 21.8626 8.72172 21.2272 8.78147 21.2272C8.80138 21.2272 8.81632 21.4792 8.8213 21.7881C8.82628 22.4554 8.9159 22.7358 9.26939 23.2434C9.79714 23.996 10.9174 24.5888 12.2666 24.8337C12.5305 24.8834 12.8093 24.9153 12.884 24.9118C12.9736 24.9047 13.2724 24.7449 13.7653 24.4397L14.5121 23.9782L13.9545 23.9534C12.7595 23.9001 11.8534 23.7581 11.1564 23.5168C10.2104 23.1902 9.87681 22.8423 9.8071 22.1146C9.7374 21.3869 10.2353 20.7267 11.1464 20.3398L11.5248 20.18L11.5298 19.9493C11.5298 19.4914 11.2908 19.0654 10.9323 18.8986C10.768 18.8205 10.6535 18.8028 10.1506 18.7744C9.43867 18.7353 8.657 18.6324 8.11929 18.5081C7.25795 18.3129 5.9535 17.784 5.03242 17.2586C3.65827 16.4742 2.72225 15.4057 2.39365 14.2343C2.21441 13.6025 2.24429 12.6263 2.47331 11.8773C2.6177 11.4052 3.07575 10.4645 3.14047 10.5107C3.15043 10.5178 3.14047 10.6385 3.1106 10.7733C2.96123 11.5862 3.01102 12.7967 3.22013 13.5421C3.72797 15.3454 5.2714 16.6694 7.36251 17.0918C9.09513 17.4397 10.7282 17.3296 11.4551 16.8114C11.7289 16.6126 12.1571 15.9949 12.2567 15.6542C12.3513 15.3241 12.3164 15.0259 12.1471 14.7632C12.0127 14.5573 11.7389 14.3301 11.5198 14.2485C11.1962 14.1278 10.5489 14.2449 10.3846 14.4544C10.2851 14.5857 10.3797 14.8235 10.6386 15.0969C10.9074 15.3773 10.9921 15.5512 10.997 15.8494C11.007 16.1476 10.8726 16.3783 10.5938 16.5416C10.3349 16.6942 10.1058 16.7297 9.36399 16.7297C6.81981 16.7368 4.88306 15.7074 4.06155 13.9148C3.79768 13.3362 3.69312 12.8606 3.69312 12.2287C3.69312 11.5685 3.75287 11.3377 4.06155 10.8692C4.22585 10.6243 4.33539 10.5178 4.66897 10.2799C5.09715 9.97466 5.42077 9.83978 6.01325 9.70844C6.541 9.59484 6.87956 9.30732 7.02892 8.85651C7.12352 8.56189 7.09863 7.90874 6.97914 7.51117C6.90943 7.28754 6.90943 7.2414 6.99407 6.92192C7.11356 6.48886 7.34757 5.99191 7.55668 5.72568C7.79068 5.42395 8.26865 5.10093 8.61219 5.00864C9.22956 4.84535 9.96145 4.9341 10.6137 5.25357C11.4551 5.66888 12.172 5.70793 13.0483 5.39556C13.2674 5.31746 13.591 5.17192 13.7653 5.06898C14.1486 4.84535 14.6067 4.47264 14.6366 4.35905C14.6465 4.3129 14.6764 4.17446 14.7063 4.04667C14.8357 3.41838 15.478 2.92497 16.4339 2.71199C17.0164 2.5842 17.34 2.5629 18.6993 2.57355C19.7548 2.5842 19.9738 2.59484 20.3174 2.65874ZM6.98909 4.96959C7.04884 5.01219 7.09863 5.05124 7.09863 5.06189C7.09863 5.07253 7.01399 5.15418 6.90445 5.23937C6.29206 5.73633 6.00827 6.56341 6.15265 7.43663C6.18253 7.63187 6.22236 7.98684 6.23729 8.22466L6.26717 8.65418L5.99831 8.85651C5.56017 9.18663 5.33115 9.22213 5.19672 8.98785C5.07723 8.77842 5.18676 7.61766 5.40583 6.72669C5.62988 5.81087 6.04312 5.10803 6.4464 4.95184C6.6356 4.8773 6.86462 4.88795 6.98909 4.96959ZM30.5538 4.95539C31.0766 5.14708 31.5645 6.23328 31.7686 7.64961C31.9827 9.12629 31.7935 9.43866 31.0268 8.87781C30.6833 8.62933 30.6833 8.63643 30.8476 7.43663C30.9471 6.72314 30.8426 6.19779 30.4991 5.69728C30.3945 5.5411 30.2153 5.33876 30.1057 5.24647C29.9912 5.15773 29.9016 5.07253 29.9016 5.06189C29.9016 5.05124 29.9514 5.01219 30.0111 4.96959C30.1406 4.8844 30.3497 4.8773 30.5538 4.95539ZM4.8034 23.9427C4.88804 24.1841 5.18179 24.5959 5.42077 24.8159C5.66971 25.0396 6.05806 25.2348 6.42649 25.3235C6.73517 25.3945 7.11854 25.5933 7.25297 25.746C7.37744 25.8915 7.34259 26.0051 7.12352 26.1506C6.96918 26.2571 6.91939 26.2678 6.65551 26.2678C6.20244 26.2678 5.75933 26.3814 5.45562 26.5766C4.96272 26.8925 4.73369 27.2723 4.76854 27.7125C4.81833 28.2982 5.2714 28.6567 6.09291 28.749C6.6356 28.8093 6.68539 28.9158 6.29206 29.1501C5.9535 29.3489 5.64481 29.569 5.57511 29.6577C5.52532 29.7216 5.49545 29.711 5.18179 29.498C4.52956 29.0543 4.06155 28.5325 3.88729 28.0426C3.76282 27.7125 3.80265 27.212 3.97193 26.9138C4.15615 26.5908 4.39015 26.3317 4.75361 26.0512L5.07225 25.8028V25.5649C5.07225 25.3732 5.04736 25.2916 4.93782 25.1496C4.61918 24.7272 4.42998 23.9924 4.60424 23.8433C4.7088 23.751 4.74365 23.7688 4.8034 23.9427ZM32.386 23.8327C32.5702 23.9889 32.4159 24.6385 32.0823 25.1248C31.9479 25.32 31.918 25.4016 31.923 25.5827C31.928 25.7992 31.928 25.8028 32.2466 26.0512C33.2474 26.8322 33.4515 27.6663 32.859 28.5112C32.615 28.859 32.2616 29.1927 31.8433 29.4767C31.4898 29.7145 31.3952 29.7536 31.3952 29.6613C31.3952 29.5832 31.1762 29.4163 30.8525 29.246C30.509 29.0685 30.3995 28.9549 30.4841 28.8661C30.5339 28.8058 30.5986 28.7916 31.0865 28.7206C32.0773 28.5786 32.5254 27.7941 32.0425 27.0558C31.7238 26.5624 31.0915 26.2678 30.3497 26.2678C30.0908 26.2678 30.031 26.2536 29.8767 26.1577C29.6626 26.0228 29.6178 25.9199 29.7224 25.7815C29.8667 25.5791 30.0808 25.4762 30.8127 25.2419C31.2807 25.0928 31.6193 24.8372 31.918 24.4184C32.0425 24.2373 32.167 24.0208 32.1968 23.9392C32.2566 23.7759 32.2964 23.7546 32.386 23.8327Z" fill="white"/>
<path d="M14.8458 5.75406C14.4474 5.85345 14.3529 5.90314 14.1985 6.10903C14.094 6.24391 14.0541 6.35396 14.0342 6.55984C13.9994 6.91481 14.0641 7.09584 14.5719 8.01166C15.7718 10.2018 16.3195 11.8276 16.5585 13.9326C16.6033 14.3301 16.6232 14.4011 16.7128 14.4544C16.9219 14.5786 17.3601 14.5112 17.614 14.3195C17.9177 14.0887 17.9426 13.8829 17.853 12.5624C17.6638 9.83266 17.3401 8.01166 16.8871 7.15974C16.3543 6.15872 16.0008 5.8002 15.4532 5.71856C15.1495 5.67241 15.1943 5.66886 14.8458 5.75406Z" fill="white"/>
<path d="M21.4873 5.72211C21.318 5.7505 21.2035 5.80375 20.9894 5.95994C20.7205 6.15872 20.6658 6.22616 20.2525 6.90416C19.7049 7.79513 19.3414 9.63032 19.1472 12.5127C19.0576 13.8829 19.0775 14.0639 19.3613 14.2946C19.6202 14.5041 20.0385 14.5822 20.2774 14.465C20.3621 14.4224 20.387 14.3621 20.4168 14.1207C20.6608 11.9341 21.1686 10.3438 22.2441 8.35953C22.976 7.01065 22.9461 7.08164 22.9511 6.69117C22.961 6.13387 22.7569 5.89604 22.1495 5.75406C21.801 5.67241 21.8059 5.67241 21.4873 5.72211Z" fill="white"/>
<path d="M8.71663 6.19069C8.63697 6.21554 8.47765 6.30428 8.37309 6.38237C8.1142 6.57406 8.07437 6.81189 8.24862 7.08167C8.38803 7.29465 9.03528 7.77031 9.47839 7.98329C9.9713 8.22112 10.6036 8.61513 11.3106 9.12629C12.6499 10.0954 13.4814 10.9011 14.1983 11.927C14.8954 12.928 15.214 13.7799 15.2937 14.8449C15.3285 15.2992 15.3285 15.3028 15.4679 15.356C15.6173 15.4093 15.7567 15.4199 15.8812 15.3844C16.0405 15.3418 15.9459 14.142 15.7119 13.2262C15.209 11.249 14.049 9.45286 12.2367 7.8413C11.0268 6.75864 9.99121 6.19069 9.17468 6.15519C8.97553 6.14455 8.81123 6.15519 8.71663 6.19069Z" fill="white"/>
<path d="M27.3473 6.2262C26.715 6.41433 26.0977 6.748 25.4454 7.26271C23.902 8.48381 22.6523 9.97468 21.9354 11.4514C21.3727 12.6192 20.9993 14.1314 21.0491 15.0685L21.0641 15.388L21.2084 15.3986C21.4026 15.4164 21.6316 15.3418 21.6615 15.2495C21.6715 15.2105 21.6964 14.9833 21.7113 14.749C21.8557 12.818 23.2199 10.8976 25.7242 9.08725C26.2968 8.67549 27.0785 8.19273 27.5116 7.98685C27.9647 7.77032 28.612 7.29821 28.7514 7.08168C28.9256 6.8119 28.8858 6.57407 28.6269 6.38239C28.5223 6.30429 28.363 6.21555 28.2734 6.1907C28.0344 6.11616 27.6759 6.13036 27.3473 6.2262Z" fill="white"/>
<path d="M8.01966 8.73225C7.56161 8.8352 7.42718 9.19727 7.67114 9.67292C7.8454 10.0137 8.02464 10.1308 9.50334 10.8798C12.5454 12.4168 13.6258 13.1126 14.2432 13.9326L14.3776 14.11L14.3427 13.9503C14.288 13.7089 13.9893 13.1268 13.7204 12.7257C12.9586 11.6075 11.9031 10.6562 9.99625 9.3712C9.22951 8.85294 8.94572 8.73225 8.48767 8.71096C8.31341 8.70386 8.09932 8.71451 8.01966 8.73225Z" fill="white"/>
<path d="M28.1838 8.7429C27.8453 8.82454 27.7407 8.87778 27.0835 9.31795C24.7335 10.8905 23.4839 12.1222 22.8316 13.5066C22.5827 14.0426 22.5777 14.1384 22.8167 13.8509C23.0855 13.5279 23.5635 13.1161 24.0315 12.8002C24.8779 12.2322 25.4455 11.9163 27.6611 10.7982C28.1689 10.5426 28.7215 10.2409 28.8958 10.1273C29.1647 9.94979 29.2244 9.8859 29.329 9.67292C29.4584 9.41379 29.4883 9.15466 29.4086 9.00557C29.3787 8.95588 29.2792 8.87423 29.1846 8.82099C28.9705 8.70385 28.5025 8.66835 28.1838 8.7429Z" fill="white"/>
<path d="M6.07805 11.139C5.85898 11.2171 5.57519 11.4159 5.42084 11.6076C4.96279 12.1578 5.11216 13.0416 5.83906 14.0817C6.06311 14.4012 6.20252 14.5467 6.59584 14.8591C7.18832 15.3312 7.60157 15.5619 8.36333 15.8317C8.85623 16.0092 9.00061 16.0447 9.20972 16.0447C10.0611 16.0447 10.1358 15.569 9.40888 14.7881C9.02053 14.3657 9.19977 13.9539 9.87689 13.7054C10.3797 13.5244 11.2411 13.464 11.7191 13.5741C12.4908 13.7587 12.9737 14.4473 12.9737 15.3702V15.7146L13.1231 15.7394C13.5064 15.7926 13.6508 15.6258 13.6409 15.1218C13.6309 14.7313 13.4766 14.2095 13.2924 13.9291C12.8492 13.2582 11.6991 12.8145 10.1358 12.708C9.45867 12.6618 9.18483 12.5695 8.70188 12.2217C8.49277 12.069 8.20898 11.8525 8.07953 11.7389C7.4522 11.2064 6.61576 10.958 6.07805 11.139Z" fill="white"/>
<path d="M30.1504 11.107C29.772 11.1887 29.2592 11.4549 28.9206 11.7389C28.7912 11.8525 28.5124 12.0655 28.3082 12.2146C27.8203 12.5624 27.5365 12.6618 26.8694 12.708C25.9582 12.7683 25.1915 12.9351 24.6389 13.1943C24.2953 13.354 23.8671 13.6877 23.7078 13.922C23.4041 14.3657 23.2448 15.3525 23.439 15.6045C23.5385 15.7323 23.7078 15.7785 23.897 15.7252C24.0265 15.6933 24.0265 15.6862 24.0265 15.3276C24.0314 14.4296 24.5094 13.7587 25.2761 13.5776C25.7591 13.464 26.6204 13.5208 27.1233 13.7054C27.8004 13.9539 27.9796 14.3657 27.5913 14.7881C26.8644 15.5726 26.9291 16.0447 27.7656 16.0447C28.0095 16.0447 28.124 16.0163 28.6368 15.8317C29.4185 15.5513 29.8168 15.3312 30.3944 14.8662C30.7678 14.5645 30.9321 14.3976 31.1412 14.0994C32.0274 12.85 32.0673 11.8773 31.2607 11.3165C30.952 11.1 30.5388 11.0254 30.1504 11.107Z" fill="white"/>
<path d="M18.3707 15.4448C18.2462 15.5442 17.9375 15.6436 17.6437 15.672C17.4247 15.6968 17.3998 15.6897 17.2305 15.569C16.9816 15.3915 16.8073 15.3951 16.4936 15.5939C16.2845 15.7252 16.2497 15.7642 16.2098 15.9417C16.1601 16.1796 16.2198 16.57 16.3244 16.6872C16.409 16.7795 16.6579 17.2303 16.6579 17.2906C16.6579 17.3119 16.5384 17.3226 16.3492 17.3155L16.0406 17.3048L15.7518 16.8434C15.5925 16.5878 15.4033 16.3464 15.3336 16.3003C14.9651 16.0695 14.3478 16.3641 14.2084 16.8398C14.1635 16.9853 14.1685 17.067 14.2332 17.2516C14.3876 17.7095 14.4573 17.8018 14.8506 18.0751C15.7269 18.6821 16.3194 19.243 16.7276 19.8393L16.9318 20.1446L16.9367 19.5944C16.9517 18.3307 17.4247 17.4504 18.291 17.0847C18.4951 16.996 18.515 16.996 18.6644 17.0457C18.9233 17.1344 19.2818 17.3829 19.461 17.5994C19.8743 18.0858 20.0585 18.675 20.0635 19.5269L20.0684 20.1162L20.3522 19.7293C20.7456 19.1862 21.114 18.8383 21.8708 18.281C22.4782 17.8337 22.533 17.7805 22.6475 17.5498C22.8217 17.1983 22.8466 17.0386 22.7819 16.8043C22.7321 16.6375 22.6773 16.5736 22.4633 16.4138C22.2292 16.2435 22.1795 16.2222 21.9952 16.2222C21.6915 16.2222 21.577 16.318 21.2434 16.8434L20.9547 17.3048L20.646 17.3155C20.4618 17.3226 20.3423 17.3119 20.3423 17.2906C20.3423 17.2338 20.5663 16.8256 20.6858 16.6588C20.7754 16.5416 20.7953 16.4529 20.7953 16.1973C20.8003 15.8139 20.7605 15.7394 20.4767 15.5726C20.178 15.3986 20.0087 15.3986 19.7697 15.569C19.6004 15.6897 19.5755 15.6968 19.3565 15.672C19.0627 15.6436 18.754 15.5442 18.6296 15.4448C18.5748 15.4057 18.52 15.3702 18.5001 15.3702C18.4802 15.3702 18.4254 15.4057 18.3707 15.4448Z" fill="white"/>
<path d="M18.3408 17.8479C17.7931 18.2774 17.5143 19.0938 17.569 20.0913C17.6138 20.8935 17.7682 21.4934 18.0769 22.0472C18.1765 22.2282 18.3159 22.5477 18.3806 22.75C18.4403 22.9524 18.5051 23.1228 18.515 23.1334C18.525 23.1405 18.5499 23.0624 18.5698 22.9595C18.6146 22.7074 18.7739 22.3063 18.9531 21.9975C19.2768 21.4331 19.4162 20.7764 19.4162 19.8428C19.4162 19.1719 19.4062 19.0867 19.2817 18.7708C19.1473 18.4088 18.8934 18.0218 18.6594 17.8231L18.52 17.7059L18.3408 17.8479Z" fill="white"/>
<path d="M12.9485 18.7247C12.7046 18.7921 12.5452 18.8951 12.4108 19.0797C12.3162 19.2003 12.3013 19.2784 12.3013 19.6299C12.3013 20.1091 12.3809 20.2936 12.6647 20.4889C12.8191 20.5954 12.9535 20.638 13.4713 20.748C14.3725 20.9361 14.7658 21.0817 15.2139 21.4047C15.5873 21.6674 15.9059 22.0365 16.0553 22.3702C16.115 22.4945 16.1399 22.5087 16.4536 22.5761C16.6428 22.6151 16.822 22.6471 16.8569 22.6471C16.9067 22.6471 16.9166 22.5477 16.8917 22.175C16.8121 20.7906 16.0901 19.6973 14.8156 19.03C14.2729 18.7424 14.1036 18.6963 13.5958 18.6821C13.2871 18.675 13.0879 18.6892 12.9485 18.7247Z" fill="white"/>
<path d="M22.981 18.7034C22.7669 18.7495 22.523 18.8525 22.1844 19.03C21.2036 19.5411 20.5364 20.3291 20.2377 21.316C20.1132 21.7277 20.0485 22.6471 20.1431 22.6471C20.1779 22.6471 20.3572 22.6151 20.5464 22.5761C20.86 22.5087 20.8849 22.4945 20.9447 22.3702C21.1936 21.8094 21.8558 21.2414 22.5329 21.0071C22.737 20.9361 23.1304 20.8296 23.4042 20.7729C24.0963 20.6273 24.2357 20.5812 24.395 20.4427C24.6489 20.2297 24.6937 20.1126 24.6987 19.6476C24.6987 19.2713 24.6838 19.2039 24.5892 19.0725C24.4647 18.9057 24.2357 18.7744 23.9817 18.7105C23.7926 18.6679 23.1752 18.6608 22.981 18.7034Z" fill="white"/>
<path d="M12.351 21.3124C11.6291 21.4118 10.957 21.6958 10.7628 21.9868C10.5338 22.3311 10.8026 22.7216 11.405 22.9346C11.8731 23.0979 11.9876 23.0766 12.5004 22.7181C13.063 22.3276 13.2422 22.2744 13.9442 22.2744C14.3625 22.2779 14.5815 22.2957 14.8803 22.3595C15.0993 22.4021 15.2835 22.4341 15.2935 22.427C15.3283 22.4021 14.9699 22.0543 14.7309 21.8768C14.0637 21.3905 13.2323 21.1952 12.351 21.3124Z" fill="white"/>
<path d="M23.7277 21.2982C22.9909 21.394 22.3287 21.7312 21.8209 22.2708C21.7462 22.3489 21.6964 22.4199 21.7063 22.427C21.7163 22.4341 21.9005 22.4021 22.1196 22.3595C22.4183 22.2957 22.6374 22.2779 23.0556 22.2744C23.7576 22.2744 23.9269 22.3276 24.5243 22.7358C24.9027 22.9985 24.9874 23.0375 25.1367 23.0375C25.4205 23.0375 25.9085 22.8352 26.1076 22.6364C26.5258 22.2211 26.2819 21.788 25.4753 21.5112C24.9276 21.3195 24.2107 21.2343 23.7277 21.2982Z" fill="white"/>
<path d="M17.305 23.996C15.1741 24.319 13.5759 25.3803 13.0879 26.7931C12.9585 27.1623 12.9734 27.9397 13.1178 28.3266C13.2373 28.6567 13.6904 29.3383 13.9144 29.5299L14.0588 29.6542L14.3376 29.6045C14.492 29.5796 14.6164 29.5441 14.6164 29.5228C14.6164 29.5051 14.5368 29.427 14.4422 29.3489C14.1982 29.143 13.8995 28.7135 13.7402 28.3443C13.6257 28.0675 13.6057 27.9574 13.6008 27.5457C13.5958 26.9919 13.6705 26.7399 13.9742 26.2749C14.2231 25.8915 14.5169 25.6004 14.9699 25.2881C15.418 24.9828 15.6819 24.8514 16.2196 24.6704C18.7837 23.8007 21.8955 24.5355 23.0257 26.2749C23.3294 26.7363 23.3991 26.9884 23.3991 27.5457C23.3941 27.961 23.3792 28.0675 23.2597 28.3443C23.1053 28.7064 22.8713 29.0401 22.5825 29.3134C22.473 29.4163 22.3834 29.5122 22.3834 29.5299C22.3834 29.5441 22.5079 29.5796 22.6622 29.6045L22.941 29.6542L23.0854 29.5299C23.2696 29.3702 23.643 28.859 23.7725 28.5857C24.355 27.354 23.887 26.0228 22.5278 25.0609C21.766 24.5213 20.6209 24.1096 19.4758 23.964C18.9978 23.9037 17.7929 23.9214 17.305 23.996Z" fill="white"/>
<path d="M18.0372 24.7805C16.5684 24.887 15.2839 25.494 14.6914 26.3494C14.3777 26.8038 14.2931 27.0558 14.2981 27.5279C14.2981 28.1207 14.5022 28.5609 14.9901 29.0543C15.3486 29.4128 15.3187 29.4057 15.8514 29.2957L16.3095 29.2034L16.0357 29.0046C15.4133 28.5538 15.1594 28.1136 15.1594 27.5137C15.1644 26.9458 15.4432 26.463 16.0108 26.0548C17.36 25.0786 19.6204 25.0822 20.9896 26.0548C21.5572 26.463 21.836 26.9458 21.836 27.535C21.836 28.103 21.5522 28.5751 20.9498 29.0153L20.6909 29.2034L21.1489 29.2992L21.6119 29.3951L21.8011 29.2424C21.9107 29.1573 22.0849 28.9833 22.1945 28.852C22.8268 28.0923 22.8865 27.2156 22.3588 26.4204C21.6319 25.32 19.8594 24.6456 18.0372 24.7805Z" fill="white"/>
<path d="M17.9526 26.1045C17.2854 26.2039 16.678 26.5411 16.3942 26.967C16.2498 27.1907 16.2349 27.2368 16.2349 27.5634C16.2349 27.89 16.2498 27.9361 16.3942 28.1597C17.1908 29.356 19.7698 29.3595 20.5963 28.1668C20.7556 27.9361 20.7656 27.8971 20.7656 27.5634C20.7656 27.2297 20.7556 27.1907 20.5963 26.9599C20.1283 26.2855 19.0479 25.9341 17.9526 26.1045Z" fill="white"/>
<path d="M16.0951 29.8352C15.8263 29.8885 15.7416 29.924 15.891 29.924C16.0454 29.924 16.4138 30.105 16.6478 30.2967C17.0262 30.602 17.3 31.1273 17.305 31.5462C17.31 32.1887 16.7922 32.9625 15.9259 33.6157C15.5375 33.9067 14.7658 34.393 14.7658 34.3433C14.7658 34.3291 14.8654 34.2298 14.9849 34.1197C15.3135 33.8109 15.901 33.1648 16.0852 32.9057C16.832 31.8408 16.7175 31.035 15.7616 30.6872C15.3782 30.5487 15.199 30.5274 14.8803 30.5878C14.0638 30.7404 13.4066 31.1486 13.1079 31.6846C12.7095 32.4123 12.8191 33.5908 13.3966 34.8935C13.4862 35.0994 13.6008 35.3692 13.6406 35.4934C13.7999 35.9443 14.1783 36.285 14.6513 36.3986C15.0347 36.4909 15.0844 36.4803 15.1492 36.2815C15.179 36.1821 15.3035 35.9585 15.418 35.7845C15.5973 35.5112 15.662 35.4437 15.8562 35.355C16.1549 35.213 16.2843 35.1917 16.4835 35.2592C16.7125 35.3373 16.8967 35.6212 16.9863 36.033C17.0859 36.5051 17.2403 36.64 17.5938 36.5584C17.8228 36.5051 18.017 36.4128 18.2858 36.2318L18.4949 36.0898L18.7937 36.285C19.1422 36.5193 19.4558 36.6187 19.655 36.5655C19.8541 36.5122 19.9487 36.3809 19.9985 36.0969C20.0583 35.7632 20.1081 35.6319 20.2624 35.4473C20.3968 35.2805 20.6159 35.1917 20.8001 35.2237C20.8648 35.2379 21.0142 35.2911 21.1337 35.3444C21.3129 35.4295 21.3826 35.497 21.5718 35.7774C21.6963 35.962 21.8208 36.1892 21.8506 36.285C21.9154 36.4803 21.9652 36.4909 22.3485 36.3986C22.8365 36.2815 23.2397 35.8981 23.3742 35.4224C23.409 35.3124 23.4787 35.142 23.5335 35.0391C23.6978 34.7267 23.9666 33.9387 24.0563 33.5092C24.1558 33.0193 24.126 32.2632 24.0015 31.9295C23.7376 31.2551 23.0456 30.7581 22.1195 30.5878C21.8009 30.5274 21.6266 30.5487 21.2383 30.6872C20.4616 30.9711 20.2226 31.5675 20.581 32.3271C20.835 32.8631 21.2134 33.3459 21.8855 33.9884C22.0747 34.173 22.234 34.3362 22.234 34.3469C22.234 34.393 21.4723 33.9174 21.0889 33.6299C19.7396 32.6146 19.3662 31.5462 20.0334 30.6126C20.2425 30.3215 20.7404 29.9914 21.0789 29.9275C21.2134 29.8991 21.2134 29.8991 21.0142 29.853C20.9047 29.8317 20.6209 29.8033 20.3819 29.7926C19.9985 29.7749 19.9238 29.782 19.6749 29.8636C19.4608 29.9346 19.3612 29.995 19.2517 30.1227C18.8634 30.5523 18.9032 30.9711 19.5206 32.959C19.8044 33.8748 19.7695 33.9955 19.0426 34.567C18.7638 34.7871 18.5198 34.9645 18.4999 34.9645C18.475 34.9645 18.236 34.7871 17.9572 34.567C17.5589 34.2546 17.4344 34.1304 17.3797 33.9919C17.2851 33.7683 17.2851 33.5518 17.3847 33.2607C17.6435 32.4797 17.9672 31.28 17.9871 31.0066C18.0568 30.1831 17.6336 29.7784 16.7075 29.7855C16.5034 29.7855 16.2246 29.8104 16.0951 29.8352ZM15.5126 31.138C15.8014 31.28 15.8711 31.3829 15.901 31.6846C15.9308 32.0502 15.8412 32.4052 15.667 32.5756C15.5923 32.6501 15.3384 32.8063 15.1093 32.9199C14.5617 33.1968 14.477 33.2536 14.3625 33.4133C14.2729 33.5376 14.248 33.5482 14.0787 33.5376L13.8945 33.5269L13.7451 32.8986C13.6107 32.32 13.6057 32.2526 13.6655 32.0467C13.78 31.642 14.1136 31.3509 14.6861 31.1628C15.0595 31.0386 15.2935 31.035 15.5126 31.138ZM22.3037 31.1628C22.7369 31.3012 23.0356 31.5071 23.2049 31.7769C23.3991 32.0857 23.409 32.3165 23.2447 32.9767L23.1053 33.5269L22.9211 33.5376C22.7518 33.5482 22.7269 33.5376 22.6323 33.4062C22.5576 33.2997 22.3784 33.179 21.9602 32.959C21.6465 32.7957 21.3528 32.6182 21.308 32.5685C21.1188 32.3626 21.0142 31.6633 21.1437 31.4255C21.2034 31.3083 21.4225 31.1344 21.5619 31.0954C21.7511 31.0386 21.9901 31.0599 22.3037 31.1628Z" fill="white"/>
<path d="M13.3021 36.427C13.2872 36.4731 13.2673 36.6755 13.2573 36.8814C13.2175 37.5238 13.0681 37.7226 12.0176 38.5C11.5097 38.8798 11.3305 39.0325 11.3305 39.0999C11.3305 39.1496 11.3604 39.1887 11.3952 39.1922C11.5446 39.2029 11.7587 39.178 11.9429 39.1319C12.0524 39.1035 12.157 39.0822 12.1819 39.0822C12.2715 39.0822 12.4258 39.3661 12.4258 39.5401C12.4258 39.6927 12.4059 39.7247 12.2516 39.8205C12.157 39.8808 11.9927 39.9412 11.8931 39.9554C11.6342 39.9873 11.2558 40.1293 11.1612 40.2252C10.967 40.424 11.1463 40.605 11.7388 40.8109C12.3213 41.0132 12.7793 41.109 13.2722 41.1303C13.795 41.1552 14.0639 41.1055 14.3178 40.9422L14.507 40.818L14.4821 40.5375C14.4522 40.2607 14.4572 40.2536 14.6066 40.1329C15.3484 39.5294 15.7915 38.7307 15.8463 37.8895C15.8762 37.4138 15.8513 37.3464 15.5973 37.2363C15.1592 37.0446 14.7808 37.2789 14.6862 37.8043C14.6414 38.067 14.5418 38.2018 14.4024 38.1876C14.2481 38.1734 14.1336 37.9995 14.024 37.6232C13.8498 37.0162 13.5062 36.3489 13.3668 36.3489C13.3419 36.3489 13.3121 36.3844 13.3021 36.427Z" fill="white"/>
<path d="M23.5087 36.4376C23.3544 36.6045 23.0706 37.2541 22.9312 37.7581C22.7769 38.319 22.4084 38.3438 22.3138 37.8043C22.2192 37.2789 21.8408 37.0446 21.4027 37.2363C21.1488 37.3464 21.1239 37.4138 21.1538 37.8895C21.2135 38.7343 21.6068 39.4691 22.3238 40.069L22.5478 40.2607L22.518 40.5375C22.4881 40.7931 22.498 40.8215 22.6026 40.9031C22.8366 41.0842 23.0158 41.1232 23.5784 41.1232C24.1809 41.1232 24.5742 41.0522 25.2563 40.8144C25.8538 40.605 26.033 40.4239 25.8388 40.2252C25.7442 40.1293 25.3658 39.9873 25.1069 39.9554C24.8829 39.927 24.5941 39.7566 24.5593 39.6324C24.5294 39.5046 24.6091 39.2596 24.7186 39.1567C24.8082 39.0751 24.8132 39.0751 25.0522 39.1283C25.3758 39.1993 25.5501 39.2206 25.6247 39.1886C25.7592 39.1283 25.5949 38.9473 25.0024 38.5142C23.917 37.7226 23.7776 37.5451 23.7378 36.8565C23.7129 36.3808 23.6531 36.2779 23.5087 36.4376Z" fill="white"/>
<path d="M17.4696 37.3854C17.385 37.4883 17.141 37.8788 16.9369 38.2515C16.7278 38.6278 16.4639 39.0431 16.3494 39.1745C16.0158 39.5685 15.8465 39.9376 15.8415 40.2713C15.8366 40.5837 15.9112 40.7292 16.1602 40.8961C16.3245 41.0061 16.4091 41.1907 16.4091 41.4498V41.6379H16.6481C17.1211 41.6344 17.5692 41.3966 17.7534 41.0487C17.8829 40.7967 17.9277 40.5837 17.8629 40.5304C17.5692 40.2713 17.5294 39.0715 17.7833 38.1308C17.8231 37.9853 17.853 37.7617 17.848 37.6339C17.838 37.1689 17.7186 37.0908 17.4696 37.3854Z" fill="white"/>
<path d="M19.1971 37.2931C19.1274 37.4245 19.1373 37.8256 19.217 38.145C19.4361 38.9863 19.446 39.9234 19.2419 40.3068C19.0975 40.5837 19.1025 40.818 19.2568 41.07C19.4759 41.4214 19.8891 41.6344 20.3571 41.6379H20.5911V41.4498C20.5911 41.1942 20.6708 41.0167 20.8401 40.8925C20.9197 40.8322 21.0243 40.7328 21.0741 40.6689C21.1886 40.5127 21.1886 40.0832 21.0691 39.8276C20.9646 39.6111 20.6758 39.1851 20.5414 39.0467C20.4916 38.997 20.2675 38.6278 20.0435 38.2302C19.5008 37.2612 19.3215 37.0588 19.1971 37.2931Z" fill="white"/>
<path d="M9.01535 38.6455C8.94564 38.7023 8.72657 38.8692 8.52244 39.0218C8.04946 39.3697 7.92499 39.5791 7.95486 39.9554C8.01958 40.7008 8.92573 41.3043 10.5737 41.6983C11.0517 41.8119 11.1413 41.8225 11.5147 41.8083C11.9827 41.7906 12.2018 41.7125 12.2018 41.5634C12.2018 41.496 12.1221 41.4498 11.7537 41.3078C10.9173 40.9848 10.2053 40.5695 9.86672 40.2003C9.64765 39.966 9.48833 39.6288 9.48833 39.4016C9.48833 39.2738 9.45846 39.1922 9.3788 39.1177L9.27424 39.0147L9.40369 38.8727C9.55306 38.713 9.53812 38.6314 9.3539 38.5817C9.17467 38.5355 9.14479 38.5391 9.01535 38.6455Z" fill="white"/>
<path d="M27.6313 38.5852C27.472 38.6314 27.4471 38.7201 27.5616 38.8337C27.6761 38.9508 27.691 39.0928 27.5915 39.1496C27.5516 39.1745 27.5168 39.2916 27.5018 39.4549C27.4421 40.108 26.6405 40.7683 25.2614 41.3007C24.878 41.4498 24.7983 41.496 24.7983 41.5634C24.7983 41.7125 25.0174 41.7906 25.4854 41.8083C25.8588 41.8225 25.9484 41.8119 26.4413 41.6947C27.3375 41.4782 28.1242 41.1481 28.5424 40.8073C28.642 40.7257 28.7913 40.5588 28.876 40.431C29.0154 40.2252 29.0303 40.1648 29.0303 39.8808C29.0303 39.501 28.9507 39.3803 28.4478 39.0076C28.2736 38.8798 28.0744 38.7236 28.0047 38.6598C27.8653 38.5462 27.8105 38.532 27.6313 38.5852Z" fill="white"/>
<path d="M0.476807 53.4407V60.6288H18.5001H36.5234V53.4407V46.2525H18.5001H0.476807V53.4407ZM22.7421 50.4483C23.469 50.64 23.9768 50.9807 24.3502 51.5167C24.7884 52.145 24.9775 53.0147 24.873 53.8808C24.7037 55.3078 23.8922 56.2059 22.5329 56.4615C22.1396 56.536 21.3231 56.5431 20.9397 56.4792C20.0983 56.3372 19.3515 55.8829 18.9731 55.2865C18.6943 54.8464 18.5648 54.4381 18.5051 53.8382C18.3308 52.1095 19.1673 50.7891 20.651 50.4447C21.0991 50.3418 21.1488 50.3382 21.811 50.3524C22.2989 50.3595 22.4682 50.3773 22.7421 50.4483ZM7.60647 52.5604C7.62638 54.6724 7.62638 54.6831 7.7409 54.9316C7.83051 55.1197 7.91017 55.2191 8.08941 55.3433C8.35329 55.535 8.5624 55.5882 9.04534 55.5882C9.85191 55.5882 10.2452 55.3149 10.4095 54.644C10.4693 54.3955 10.4842 53.9696 10.4842 52.39V50.4412H11.2061H11.9331L11.9181 52.6136C11.8982 54.7576 11.8982 54.7931 11.7837 55.0558C11.48 55.7693 10.9174 56.2023 10.0063 56.426C9.6677 56.5112 9.53327 56.5254 9.04037 56.5218C8.5624 56.5218 8.40308 56.5076 8.08443 56.4331C7.34259 56.2591 6.83475 55.9361 6.50117 55.4392C6.16261 54.9245 6.15265 54.857 6.15265 52.5178V50.4412H6.8696H7.59153L7.60647 52.5604ZM17.6537 50.9381V51.4351H16.2099H14.766L14.776 52.1486L14.7909 52.8585H16.1252L17.4546 52.855V53.3697V53.8844H16.1103H14.766V55.1445V56.4047H14.0441H13.3221V53.4229V50.4412H15.4879H17.6537V50.9381ZM29.1299 50.5122C30.3049 50.7145 30.8476 51.2683 30.8476 52.2693C30.8476 52.8798 30.6235 53.3342 30.1555 53.6608C29.6825 53.9909 29.0701 54.1293 28.0495 54.1329H27.5118V55.2688V56.4047H26.7898H26.0679V53.4194V50.4341L27.4769 50.4518C28.2984 50.4625 28.9855 50.4873 29.1299 50.5122Z" fill="white"/>
<path d="M21.3132 51.2896C20.5614 51.4316 20.1431 51.9818 20.0436 52.9757C19.9689 53.7673 20.0934 54.5446 20.3672 54.9564C20.6609 55.4001 21.0543 55.5883 21.6816 55.5883C22.7072 55.5847 23.2002 55.0736 23.3346 53.8773C23.479 52.5817 23.1006 51.6481 22.3189 51.357C22.1048 51.2825 21.5571 51.2434 21.3132 51.2896Z" fill="white"/>
<path d="M27.5117 52.2657V53.0928L27.8752 53.1141C28.3482 53.1354 28.7664 53.0928 28.9556 52.997C29.1946 52.8763 29.2692 52.7343 29.2941 52.3758C29.3439 51.6445 29.0402 51.4351 27.9349 51.4351H27.5117V52.2657Z" fill="white"/>
</svg>
