<svg width="106" height="174" viewBox="0 0 106 174" fill="none" xmlns="http://www.w3.org/2000/svg">
<g filter="url(#filter0_d)">
<path d="M4.08211 60.5923L4.16174 120.654L52.6519 120.686L101.129 120.709L101.089 60.667L101.037 0.634706L52.5195 0.582831L4.00248 0.530955L4.08211 60.5923ZM46.4947 5.33687C47.192 5.58867 47.3531 5.79163 46.8304 5.79107C46.2004 5.79039 44.8472 6.07863 44.0435 6.39642C42.6369 6.92601 41.8205 7.76522 40.7643 9.72429C39.7883 11.5289 38.5434 12.6864 37.0162 13.1965C36.3597 13.4179 36.0783 13.4562 35.0463 13.4551C34.0546 13.454 33.7463 13.4151 33.2769 13.2311C32.593 12.9697 32.0697 12.4477 31.9483 11.8875C31.8673 11.4819 31.8673 11.4722 32.363 11.3182C32.6444 11.2413 33.301 11.1454 33.8236 11.117C34.5473 11.0695 34.8689 11.0023 35.1501 10.8384C35.6054 10.5685 36.0075 10.5496 36.6377 10.7724C37.4154 11.0339 37.643 10.8893 38.6597 9.43236C39.8101 7.80169 40.6132 6.95281 41.6844 6.21043C43.3582 5.06314 44.8991 4.78476 46.4947 5.33687ZM61.7468 5.38214C62.5915 5.65342 64 6.59157 64.7784 7.40352C65.0737 7.72249 65.7852 8.61161 66.3357 9.37504C66.8862 10.1385 67.45 10.815 67.5707 10.8731C67.7451 10.9505 67.9193 10.941 68.2408 10.8448C69.0581 10.6043 69.4735 10.6047 69.9028 10.8659C70.1979 11.0497 70.5062 11.108 71.2434 11.157C71.7661 11.1865 72.423 11.2838 72.7045 11.3614C73.2006 11.5164 73.2006 11.526 73.1208 11.9315C73.0009 12.4914 72.4789 13.0123 71.7957 13.2723C71.3403 13.4553 71.0186 13.4936 70.0269 13.4925C68.9949 13.4914 68.7134 13.4525 68.0564 13.2297C66.5144 12.7066 65.2932 11.5755 64.2587 9.68182C63.9497 9.12143 63.5333 8.42574 63.3185 8.13583C62.862 7.47872 61.7619 6.67609 60.8769 6.35649C60.1528 6.08534 58.7854 5.80385 58.2359 5.80326C57.4719 5.80245 58.1147 5.37826 59.2 5.16699C59.9906 5.01333 60.835 5.08183 61.7468 5.38214ZM57.421 7.82052C60.7055 8.45169 62.4764 9.8151 62.8546 12.0461C62.9492 12.6062 63.0297 12.7222 63.6872 13.2636C65.74 14.975 68.4889 15.9918 70.6063 15.8203C71.6917 15.7249 72.6831 15.4362 73.6742 14.9352C75.4288 14.039 77.4522 13.7805 79.1549 14.2361C80.9381 14.7208 82.4413 16.335 83.2351 18.6147C83.7329 20.0347 83.7601 20.392 83.4535 21.6084C83.2668 22.3131 83.2273 22.8345 83.2819 23.5877C83.4187 25.6929 84.2374 26.5821 86.4898 27.1156C87.9243 27.4648 88.6887 27.8036 89.829 28.6159C90.6339 29.1961 90.9694 29.5248 91.3991 30.1722C92.2586 31.4478 92.4336 32.0756 92.4227 33.9392C92.4122 36.1311 91.9052 37.8687 90.7016 39.8469C88.4816 43.4849 84.2761 45.6627 78.6745 46.0913C76.9993 46.2247 74.895 46.0969 74.2513 45.8258C73.1517 45.3611 72.5337 44.2693 72.8004 43.2461C72.9604 42.6186 73.161 42.2808 73.8836 41.4608C74.5126 40.7373 74.6461 40.3222 74.3909 39.9357C74.0149 39.3656 72.2587 39.0258 71.3612 39.3628C70.3029 39.7672 69.3797 40.896 69.2336 41.9483C69.101 43.02 69.8672 44.672 71.1019 45.9576C72.2293 47.1465 75.286 47.8354 78.5291 47.6361C82.8577 47.3703 86.1132 46.3599 88.751 44.4701C92.6072 41.7126 94.4913 37.4563 94.1895 32.203C94.1347 31.3242 94.0396 30.3102 93.9721 29.9336C93.9046 29.5666 93.8773 29.2382 93.9041 29.2189C94.105 29.0743 95.3415 31.7504 95.8128 33.3538C96.1358 34.4356 96.1765 34.7833 96.1788 36.5021C96.1942 37.9795 96.128 38.6361 95.9546 39.2828C95.0476 42.5167 92.5719 45.4012 88.8355 47.5602C86.3847 48.977 82.8484 50.4313 80.5305 50.9599C79.0834 51.2964 76.9796 51.5741 75.0632 51.6783C73.7097 51.7541 73.4015 51.8021 72.9595 52.014C71.9951 52.4668 71.3533 53.6249 71.355 54.8705L71.3558 55.4982L72.2006 55.8467C75.0435 57.0568 76.4267 59.086 75.9338 61.345C75.5874 62.8993 74.5968 63.7963 72.3596 64.5857C70.4708 65.2499 68.1928 65.6048 64.762 65.7556L63.328 65.8217L65.3534 67.0791C66.6814 67.911 67.4861 68.3464 67.7274 68.3659C67.9284 68.3758 68.6789 68.2897 69.389 68.1553C73.0202 67.4929 76.0336 65.8835 77.4516 63.838C78.4147 62.4582 78.6415 61.6956 78.6525 59.8802C78.6648 59.0401 78.7041 58.3546 78.7577 58.3547C78.9722 58.3549 80.2079 60.384 80.477 61.1954C81.3112 63.649 80.4035 66.4096 78.0075 68.6666L77.2579 69.3707L77.767 69.2168C80.1651 68.5048 82.0651 66.1507 82.8382 62.965C82.9448 62.4823 83.1175 61.3334 83.1967 60.4355L83.3554 58.7941L84.0253 58.6307C85.3517 58.3134 86.5045 58.4498 86.5051 58.923C86.5054 59.1258 86.0641 59.8399 85.7294 60.1775C85.5555 60.3607 85.4487 60.6986 85.3824 61.2586C85.2632 62.3303 84.7163 64.2513 84.2218 65.3516C83.7675 66.3553 82.7644 67.9185 82.0551 68.7096C81.3458 69.5103 79.9131 70.5516 78.8416 71.0622C78.3058 71.3127 77.8504 71.5247 77.8237 71.544C77.7969 71.5632 77.8775 71.7565 78.0119 71.9883C78.1328 72.2202 78.2671 72.4521 78.3074 72.5101C78.3477 72.5777 77.8116 72.5965 76.5652 72.5662C72.5979 72.4654 70.1996 73.0325 69.5713 74.2195C69.3707 74.5959 69.3575 74.7311 69.5058 75.3589C69.6001 75.7452 69.7212 76.1027 69.7749 76.1413C69.9895 76.3154 75.0684 75.8283 76.9711 75.4441C79.2087 75.0023 80.1596 74.5302 80.6275 73.6134C80.9617 72.9764 81.3634 72.6775 81.6585 72.8613C81.7524 72.9193 81.927 73.1996 82.048 73.4797C82.2363 73.9531 82.2364 74.0496 82.0494 74.5129C81.6085 75.5939 79.7201 76.5768 76.5983 77.3267C75.2451 77.6535 72.2168 78.1621 70.8901 78.2862C70.5149 78.3244 70.1129 78.4205 70.0058 78.5073C69.6845 78.7677 69.4978 79.4241 69.6189 79.8395C69.7536 80.3224 69.9145 80.3419 71.9111 80.0737C73.7469 79.8246 74.7253 79.8546 75.5567 80.1934C76.3613 80.513 76.8578 80.9963 77.0195 81.6241C77.2215 82.3775 77.3556 82.4259 78.9772 82.3601L80.3442 82.3036L80.492 82.6031C80.6802 82.9896 80.681 83.6558 80.4939 84.0129C80.1062 84.756 78.6864 85.3821 76.7568 85.6601L75.524 85.8326L75.98 86.0842C76.6506 86.4518 77.8172 86.8972 78.635 87.0912C79.7478 87.3628 81.6643 87.3455 82.8299 87.0474C84.0626 86.7494 85.5359 86.0268 86.5936 85.1975C87.4638 84.5128 87.4638 84.5128 87.558 84.7833C87.6118 84.9282 87.5857 85.4206 87.5058 85.8647C87.1465 87.7956 85.6872 88.9528 83.0341 89.4038C81.4797 89.6628 79.6301 89.5546 75.689 88.971C74.6166 88.8154 73.7184 88.7082 73.6917 88.7275C73.6649 88.7468 73.732 88.8434 73.8662 88.9498C74.2419 89.2399 74.6184 90.1866 74.7402 91.0751C74.8756 92.1567 74.7434 93.4698 74.2372 95.864C73.7045 98.374 73.2921 100.739 73.2928 101.261C73.2931 101.483 73.2532 101.695 73.213 101.734C73.1193 101.801 71.5505 101.249 71.5503 101.153C71.5503 101.124 71.6966 100.245 71.8828 99.2025C72.3882 96.2772 72.6399 93.989 72.6509 92.1929L72.6487 90.5514L72.0976 89.3534C71.4525 87.9912 70.781 86.9863 70.0832 86.3193C69.6001 85.8649 68.5674 85.2844 68.2323 85.2841C68.1385 85.284 67.9508 85.2548 67.8167 85.216C67.6424 85.1676 67.6828 85.2545 67.9914 85.5252C69.0515 86.5016 69.522 87.6029 69.6181 89.3508C69.7141 90.9828 69.528 92.1413 68.8871 93.927C68.393 95.2784 68.393 95.288 68.3957 97.3061C68.3978 98.9187 68.4522 99.4788 68.6405 100.039C69.5824 102.831 71.5412 104.387 74.7048 104.864L75.6834 105.01L76.3799 104.663C77.438 104.133 78.2956 104.008 79.1001 104.26C79.7034 104.444 80.0523 104.744 80.6029 105.556C80.9386 106.068 81.1936 106.31 81.502 106.426C82.1859 106.687 82.4945 106.958 82.8169 107.567C83.5156 108.89 83.477 110.117 82.728 111.255C82.1395 112.143 80.5058 113.242 78.8715 113.849C77.3578 114.407 75.7635 114.83 73.8608 115.166C72.3734 115.445 70.0954 115.732 70.0015 115.664C69.9613 115.645 69.9074 115.452 69.8669 115.239C69.7994 114.863 69.786 114.853 69.3035 114.891C67.0656 115.082 65.6584 115.177 65.6048 115.128C65.5645 115.109 65.5375 114.964 65.5374 114.819C65.537 114.53 65.3358 114.443 64.6925 114.442C63.4461 114.441 62.6291 114.893 62.4827 115.656L62.3895 116.129L60.0441 116.156C57.7657 116.182 55.6882 116.054 55.2054 115.88C55.0847 115.822 54.7897 115.658 54.575 115.503C54.0921 115.155 53.6094 115.048 53.0869 115.183C52.8056 115.26 52.5643 115.25 52.2962 115.182C51.7867 115.036 51.2507 115.152 50.7687 115.499C50.5545 115.653 50.2599 115.817 50.1393 115.875C49.657 116.048 47.5798 116.171 45.3014 116.14L42.9559 116.108L42.8884 115.712C42.7399 114.94 42.1362 114.534 40.9701 114.445C40.2329 114.387 39.5898 114.531 39.7374 114.715C39.7911 114.763 39.7913 114.879 39.7512 114.975C39.671 115.159 39.4566 115.149 36.0385 114.855C35.556 114.816 35.5426 114.826 35.4761 115.202C35.4362 115.415 35.3694 115.608 35.3293 115.637C35.1418 115.772 30.9325 115.082 29.0019 114.587C25.0871 113.598 22.5921 111.992 22.1071 110.138C21.8512 109.162 22.0242 108.245 22.6929 107.193C22.9337 106.817 23.1479 106.644 23.5899 106.47C24.0588 106.278 24.273 106.104 24.7144 105.496C25.3432 104.628 25.6377 104.377 26.2138 104.204C27.0176 103.954 27.8756 104.09 28.9351 104.612L29.6324 104.961L30.6106 104.817C33.7864 104.347 35.7679 102.766 36.6621 99.9759C36.849 99.3581 36.9018 98.8078 36.8997 97.1759C36.8973 95.3605 36.8701 95.0805 36.6012 94.4719C35.8887 92.8489 35.6998 91.8734 35.6972 89.9325C35.6819 88.4551 35.7349 87.9724 35.9218 87.4801C36.2157 86.7465 36.6972 86.0132 37.2461 85.5116C37.6611 85.1355 37.6208 85.0872 36.9911 85.2603C35.4771 85.6643 34.3128 86.9087 33.1768 89.3215L32.6154 90.5086L32.6311 92.1984C32.6471 94.1876 33.1889 98.4755 33.7013 100.813C33.7822 101.17 33.7688 101.17 32.9784 101.459C32.5364 101.623 32.1478 101.719 32.0942 101.69C32.0539 101.651 32.0134 101.439 32.0131 101.217C32.0125 100.714 31.5939 98.3676 31.0679 95.9047C30.515 93.3163 30.3659 92.0415 30.5253 91.0085C30.6715 90.0913 31.0456 89.184 31.4071 88.9044C31.541 88.7983 31.6079 88.7018 31.581 88.6825C31.5542 88.6631 30.509 88.7875 29.2628 88.96C25.3902 89.5063 23.7686 89.6011 22.2404 89.3388C19.7872 88.9209 18.3383 87.8958 17.8402 86.2055C17.6651 85.5776 17.5835 84.6312 17.7174 84.5348C17.7576 84.5155 18.3209 84.8638 18.9648 85.3183C20.9368 86.7109 22.3716 87.1952 24.5562 87.2072C26.2047 87.2186 27.223 86.9976 28.7365 86.2847L29.7813 85.7934L28.5614 85.6182C27.8912 85.521 27.06 85.3463 26.7114 85.23C25.9069 84.9781 25.035 84.4171 24.7932 84.0113C24.5782 83.6345 24.5639 82.9585 24.7644 82.5435L24.9114 82.2347L26.2116 82.3037C27.8736 82.3827 28.021 82.3346 28.221 81.6009C28.4877 80.597 29.5323 79.9608 31.0332 79.8658C31.5157 79.8374 32.3467 79.8962 33.3387 80.0324C35.3494 80.305 35.5102 80.2858 35.6302 79.7935C35.7368 79.3301 35.5215 78.6539 35.213 78.4605C35.0922 78.3831 34.5426 78.2666 33.993 78.1985C27.9073 77.4967 23.7372 76.0342 23.1185 74.392C22.9571 73.9476 23.1571 73.1946 23.532 72.8571L23.7595 72.6449L24.0949 72.906C24.2827 73.0414 24.4976 73.3409 24.5917 73.5535C24.9413 74.4132 26.1349 74.9842 28.5077 75.4309C30.5588 75.829 35.2503 76.2782 35.4645 76.1047C35.6921 75.9214 35.8512 74.6663 35.7167 74.2896C35.246 73.0531 32.7121 72.4227 28.6647 72.515C27.4183 72.5426 26.8821 72.5227 26.9223 72.4552C26.9624 72.3973 27.0961 72.1657 27.2164 71.934C27.3501 71.7024 27.4303 71.5094 27.4035 71.4901C27.3766 71.4804 26.9207 71.2674 26.3977 71.0158C23.6618 69.719 21.5946 67.2641 20.451 63.9412C20.1684 63.1008 19.7639 61.2946 19.7633 60.8215C19.7631 60.6573 19.5212 60.1936 19.2258 59.7877C18.6351 58.976 18.5812 58.7635 18.9159 58.5224C19.1034 58.3971 19.3044 58.3683 20.0416 58.4174C20.5241 58.4469 21.1541 58.5345 21.4223 58.6217C21.905 58.767 21.905 58.7767 21.9057 59.3271C21.9068 60.1479 22.1505 61.9828 22.3796 62.9486C23.1343 66.078 25.0674 68.4459 27.454 69.163L27.9635 69.318L27.212 68.6123C26.058 67.5199 25.0642 66.0318 24.6739 64.8244C24.2702 63.588 24.3484 61.9465 24.8695 60.6918C25.1366 60.0258 26.2736 58.2985 26.4344 58.2987C26.488 58.2988 26.5291 58.9844 26.5436 59.8245C26.5595 61.6399 26.8017 62.403 27.7551 63.7848C29.1785 65.8334 32.1962 67.4492 35.8292 68.1194C36.5397 68.2554 37.2903 68.3431 37.4913 68.3336C37.7326 68.3146 38.5361 67.8809 39.8619 67.0519L41.8706 65.7987L40.3694 65.7295C37.1526 65.5813 34.7129 65.1924 32.8356 64.5338C30.288 63.6427 29.3888 62.6954 29.1985 60.7157C29.0083 58.736 30.3461 56.9414 32.7974 55.8915L33.8154 55.458L33.828 54.8304C33.8263 53.5848 33.1815 52.4253 32.2159 51.9705C31.7733 51.7576 31.465 51.7089 30.1112 51.6302C28.1945 51.522 26.09 51.2397 24.6421 50.9002C22.3227 50.3666 18.8094 48.9241 16.328 47.4923C12.6261 45.3544 10.1026 42.4452 9.21378 39.2577C8.72901 37.5384 8.8059 34.883 9.41972 32.8462C9.80669 31.5624 11.0363 29.0048 11.2107 29.1305C11.2376 29.1499 11.2112 29.4781 11.1313 29.845C10.7321 32.0558 10.8705 35.3487 11.4361 37.3771C12.8097 42.2839 16.9692 45.8901 22.5998 47.0452C27.2651 47.9965 31.6607 47.7019 33.6156 46.2941C34.352 45.7542 35.5024 44.0752 35.7692 43.1485C36.0227 42.2508 35.9278 41.4396 35.4712 40.7245C35.1086 40.1641 34.3706 39.5453 33.7806 39.3226C32.909 38.9933 31.1671 39.3101 30.7256 39.8794C30.458 40.2364 30.7135 40.8836 31.4114 41.6279C32.1362 42.3915 32.3646 42.8649 32.3791 43.676C32.407 44.4872 32.046 45.1144 31.296 45.5578C30.5996 45.9723 29.9832 46.0682 27.9863 46.066C21.1376 46.078 15.9203 43.2722 13.7025 38.3934C12.99 36.8187 12.7069 35.5245 12.7046 33.8057C12.7022 32.0096 12.8622 31.3822 13.6915 30.1084C14.1329 29.4426 14.4273 29.1533 15.3245 28.5073C16.476 27.6781 17.3466 27.3121 18.9411 26.9565C20.3613 26.649 21.2717 25.8678 21.6721 24.6419C21.9257 23.8408 21.8563 22.0639 21.5332 20.9821C21.3448 20.3736 21.3446 20.248 21.5713 19.3792C21.8914 18.2015 22.5195 16.8503 23.0815 16.1267C23.7103 15.3066 24.9958 14.4293 25.9202 14.1792C27.5815 13.7368 29.552 13.9803 31.3089 14.8512C33.5754 15.9834 35.5055 16.0917 37.8632 15.2445C38.4527 15.0327 39.3233 14.6377 39.792 14.3582C40.8232 13.751 42.0549 12.7384 42.1349 12.4295C42.1615 12.304 42.2415 11.9275 42.3214 11.5799C42.6676 9.87116 44.3947 8.53081 46.9673 7.95419C48.5349 7.60825 49.406 7.55124 53.0649 7.58412C55.9063 7.61613 56.496 7.64573 57.421 7.82052ZM21.5509 14.0683C21.7118 14.1844 21.846 14.2907 21.8461 14.3197C21.8461 14.3487 21.6185 14.5705 21.324 14.802C19.6773 16.152 18.9163 18.4011 19.3081 20.7769C19.3893 21.3081 19.4978 22.2739 19.5388 22.9209L19.6208 24.0893L18.8978 24.639C17.7196 25.5357 17.1032 25.6316 16.7405 24.9939C16.418 24.4239 16.7087 21.2666 17.2952 18.8436C17.895 16.3529 19.0049 14.4422 20.0899 14.0185C20.599 13.8162 21.2155 13.8459 21.5509 14.0683ZM84.9848 14.0975C86.3928 14.6205 87.7101 17.5767 88.2648 21.4301C88.8464 25.4476 88.3382 26.2968 86.2722 24.7689C85.3465 24.092 85.3466 24.1113 85.7845 20.848C86.05 18.9074 85.7667 17.478 84.8401 16.1155C84.5581 15.6903 84.0748 15.1394 83.7796 14.888C83.4711 14.6463 83.2295 14.4143 83.2295 14.3853C83.2294 14.3564 83.3633 14.2503 83.524 14.1346C83.8722 13.9032 84.435 13.8845 84.9848 14.0975ZM15.7356 65.6742C15.9643 66.3311 16.7565 67.4521 17.4007 68.0514C18.0716 68.6605 19.1177 69.1927 20.1098 69.4351C20.941 69.6292 21.9737 70.171 22.3361 70.5866C22.6717 70.9829 22.5783 71.2918 21.9891 71.687C21.574 71.9763 21.44 72.0051 20.7297 72.0043C19.5101 72.003 18.3177 72.3108 17.5008 72.841C16.1751 73.699 15.56 74.7315 15.6554 75.929C15.7915 77.5224 17.0124 78.499 19.2242 78.7524C20.6853 78.9181 20.8197 79.2079 19.7617 79.8441C18.8511 80.3839 18.0209 80.9817 17.8336 81.2229C17.6998 81.3965 17.6194 81.3675 16.7742 80.7872C15.0169 79.5783 13.7552 78.1575 13.2843 76.8245C12.9481 75.9261 13.0535 74.5647 13.5081 73.754C14.0028 72.8759 14.6318 72.1716 15.6092 71.4098L16.466 70.7348L16.4652 70.0879C16.4645 69.5664 16.3972 69.3443 16.1018 68.9577C15.2425 67.8077 14.7306 65.8083 15.1991 65.4033C15.4803 65.1525 15.5741 65.2009 15.7356 65.6742ZM89.985 65.4543C90.4815 65.8797 90.0684 67.6463 89.1721 68.9682C88.811 69.4989 88.7309 69.721 88.7449 70.2134C88.7591 70.8025 88.7591 70.8121 89.6178 71.489C92.3145 73.6162 92.867 75.886 91.2751 78.1825C90.6197 79.1281 89.6693 80.0347 88.5445 80.806C87.5938 81.452 87.3393 81.5579 87.339 81.3068C87.3387 81.0944 86.7484 80.6399 85.8766 80.1755C84.9512 79.6917 84.6559 79.3824 84.8834 79.1412C85.0172 78.9772 85.1914 78.9388 86.5046 78.7471C89.1712 78.3637 90.3746 76.231 89.0719 74.2211C88.2123 72.878 86.5092 72.0747 84.5122 72.0725C83.8153 72.0718 83.6544 72.033 83.2386 71.7718C82.6618 71.4043 82.5408 71.1241 82.8217 70.7478C83.2097 70.1979 83.7856 69.9184 85.7549 69.2832C87.0142 68.879 87.9247 68.1848 88.7273 67.0462C89.0617 66.5541 89.396 65.9654 89.4761 65.7434C89.6364 65.2994 89.7435 65.2416 89.985 65.4543Z" fill="#66788A"/>
<path d="M42.7028 16.2241C41.631 16.4933 41.3765 16.6282 40.9617 17.1878C40.6808 17.5545 40.574 17.8537 40.5211 18.4137C40.4286 19.3792 40.6034 19.8718 41.9738 22.3646C45.2117 28.3259 46.6918 32.75 47.3427 38.4768C47.4648 39.5584 47.5187 39.7516 47.7601 39.8967C48.3235 40.2353 49.5026 40.0531 50.1855 39.5324C51.0022 38.9056 51.0685 38.3456 50.8225 34.7532C50.3033 27.3271 49.4256 22.3726 48.2029 20.0538C46.7652 17.3292 45.8123 16.3529 44.3378 16.1293C43.52 16.0028 43.6407 15.9933 42.7028 16.2241Z" fill="#66788A"/>
<path d="M60.5813 16.1563C60.1257 16.233 59.8177 16.3775 59.2419 16.8018C58.5189 17.3418 58.3717 17.5251 57.2617 19.3682C55.7907 21.7903 54.8189 26.7815 54.3066 34.6218C54.0703 38.3488 54.1246 38.8413 54.8894 39.4698C55.587 40.0402 56.7131 40.2539 57.356 39.9359C57.5837 39.8203 57.6505 39.6562 57.7301 38.9997C58.3789 33.0522 59.7402 28.7277 62.628 23.333C64.5933 19.6657 64.5131 19.8588 64.5251 18.7966C64.5499 17.2806 63.9996 16.6331 62.364 16.2451C61.4255 16.022 61.4389 16.022 60.5813 16.1563Z" fill="#66788A"/>
<path d="M26.206 17.3941C25.9917 17.4615 25.5631 17.7024 25.282 17.9146C24.5857 18.4353 24.4794 19.0821 24.9494 19.8165C25.3255 20.3962 27.0695 21.692 28.2631 22.2727C29.5908 22.9211 31.2943 23.9947 33.1993 25.3872C36.8081 28.0272 39.0492 30.2216 40.9829 33.0143C42.8629 35.7393 43.7237 38.0577 43.942 40.9548C44.0374 42.1909 44.0375 42.2005 44.4129 42.3458C44.8152 42.4911 45.1905 42.5204 45.5254 42.4242C45.9542 42.3088 45.6952 39.0447 45.062 36.5528C43.7012 31.1728 40.5719 26.2835 35.6876 21.8944C32.4269 18.9458 29.6371 17.3978 27.4389 17.2989C26.9028 17.2693 26.4606 17.2978 26.206 17.3941Z" fill="#66788A"/>
<path d="M76.3576 17.5444C74.6562 18.0543 72.9955 18.9602 71.2416 20.3585C67.0912 23.6758 63.7326 27.7278 61.8079 31.7427C60.2976 34.9179 59.2979 39.0304 59.4353 41.5798L59.4767 42.4488L59.8654 42.4782C60.3882 42.5271 61.0044 42.325 61.0845 42.074C61.1111 41.9678 61.1773 41.3499 61.2167 40.7126C61.5984 35.4601 65.2638 30.24 71.9987 25.3226C73.5385 24.2041 75.641 22.8931 76.8063 22.3343C78.0251 21.7466 79.7658 20.4642 80.1403 19.8756C80.6084 19.1422 80.5003 18.4951 79.8027 17.9729C79.5209 17.7602 79.0917 17.5183 78.8504 17.4505C78.2068 17.247 77.2419 17.2846 76.3576 17.5444Z" fill="#66788A"/>
<path d="M24.3386 24.306C23.106 24.5847 22.7454 25.5692 23.4038 26.8639C23.8742 27.7913 24.3571 28.1105 28.3403 30.1522C36.5348 34.3421 39.4456 36.2378 41.1105 38.4702L41.473 38.9534L41.3786 38.5187C41.2303 37.862 40.4241 36.2775 39.6989 35.1856C37.6443 32.1417 34.7995 29.5508 29.6617 26.0498C27.5959 24.6378 26.8315 24.3086 25.5984 24.2494C25.1293 24.2296 24.553 24.2579 24.3386 24.306Z" fill="#66788A"/>
<path d="M78.6189 24.393C77.7078 24.6141 77.4265 24.7586 75.659 25.9541C69.3387 30.225 65.9792 33.5721 64.2284 37.3361C63.5603 38.7935 63.5472 39.0542 64.1895 38.2727C64.912 37.3948 66.1972 36.2761 67.4559 35.418C69.7322 33.8755 71.259 33.0177 77.219 29.9824C78.5852 29.2886 80.0717 28.4694 80.5404 28.1609C81.2635 27.6789 81.4241 27.5053 81.7048 26.9262C82.0523 26.2217 82.1318 25.5168 81.9168 25.1111C81.8362 24.9758 81.5679 24.7534 81.313 24.6083C80.7363 24.289 79.4764 24.1911 78.6189 24.393Z" fill="#66788A"/>
<path d="M19.1204 30.8472C18.531 31.059 17.7678 31.599 17.353 32.12C16.1219 33.6153 16.5272 36.0202 18.4877 38.8515C19.092 39.7212 19.4678 40.1175 20.5277 40.9684C22.1243 42.2544 23.2375 42.8832 25.2891 43.6193C26.6166 44.1035 27.0054 44.2005 27.5683 44.2011C29.8601 44.2035 30.0595 42.9098 28.0999 40.7834C27.053 39.6332 27.534 38.5136 29.3558 37.8396C30.7088 37.3486 33.0272 37.1869 34.3143 37.4876C36.3923 37.9919 37.6949 39.8666 37.6982 42.3772L37.6994 43.3139L38.1016 43.3819C39.1338 43.5279 39.5218 43.0744 39.4932 41.7032C39.465 40.641 39.0477 39.2211 38.5507 38.4577C37.3555 36.6315 34.2579 35.4211 30.0491 35.1269C28.2262 34.9995 27.4888 34.7476 26.1875 33.7999C25.624 33.3841 24.8593 32.7943 24.5104 32.4849C22.8198 31.0347 20.5672 30.3563 19.1204 30.8472Z" fill="#66788A"/>
<path d="M83.9214 30.8296C82.9031 31.0506 81.5236 31.7734 80.6133 32.5449C80.2652 32.8535 79.5154 33.4321 78.9665 33.837C77.6543 34.7819 76.8907 35.0515 75.0949 35.1751C72.6425 35.3366 70.5791 35.7883 69.0924 36.4916C68.1682 36.9251 67.0167 37.8316 66.5887 38.4684C65.7728 39.6746 65.3474 42.3585 65.871 43.0447C66.1396 43.3926 66.5954 43.5186 67.1045 43.3743C67.4529 43.2878 67.4528 43.2684 67.4515 42.2932C67.4617 39.8502 68.7459 38.0265 70.8093 37.5363C72.1089 37.2287 74.4277 37.3856 75.7821 37.8892C77.6057 38.5671 78.0897 39.6877 77.0458 40.8357C75.0919 42.9676 75.2678 44.2521 77.5194 44.2545C78.1761 44.2552 78.4843 44.1783 79.8641 43.6776C81.9673 42.917 83.0387 42.3195 84.5917 41.0562C85.5958 40.2365 86.0375 39.7831 86.5993 38.9726C88.9805 35.5762 89.0842 32.9305 86.9109 31.4025C86.0792 30.8126 84.9665 30.6086 83.9214 30.8296Z" fill="#66788A"/>
<path d="M52.2267 42.5956C51.892 42.8656 51.0614 43.1351 50.2707 43.2115C49.6811 43.2784 49.6141 43.259 49.1579 42.9302C48.4872 42.4467 48.0181 42.4559 47.1744 42.9957C46.612 43.3524 46.5183 43.4585 46.4118 43.9412C46.2786 44.588 46.4408 45.6504 46.7227 45.9693C46.9509 46.2206 47.6226 47.4477 47.6228 47.6119C47.6229 47.6698 47.3013 47.6984 46.792 47.6786L45.961 47.6487L45.182 46.3926C44.7522 45.6969 44.242 45.0397 44.0542 44.914C43.0616 44.2853 41.4007 45.0849 41.0272 46.3785C40.9071 46.7742 40.9208 46.9964 41.0957 47.4987C41.5128 48.7448 41.7008 48.996 42.7606 49.7407C45.1216 51.3944 46.7185 52.9218 47.8197 54.5452L48.3703 55.3762L48.3817 53.8795C48.4173 50.442 49.6874 48.0486 52.0181 47.0565C52.5673 46.8157 52.6209 46.8157 53.0232 46.9514C53.7204 47.1935 54.6863 47.8705 55.1696 48.46C56.2838 49.7841 56.7818 51.3876 56.7983 53.7051L56.8138 55.308L57.5763 54.2563C58.6332 52.78 59.6237 51.8348 61.6589 50.3209C63.2924 49.106 63.4396 48.9613 63.747 48.334C64.2149 47.3785 64.2813 46.9441 64.1062 46.3066C63.9716 45.8526 63.8239 45.6786 63.247 45.2435C62.6165 44.7793 62.4824 44.7212 61.9865 44.7207C61.169 44.7198 60.8611 44.9802 59.965 46.4084L59.1893 47.6629L58.3584 47.6909C57.8625 47.7097 57.5408 47.6804 57.5407 47.6225C57.5405 47.468 58.1422 46.3581 58.4632 45.9046C58.704 45.5863 58.7573 45.3449 58.7564 44.6497C58.7684 43.6068 58.6609 43.4039 57.8964 42.9492C57.0916 42.4752 56.6359 42.4747 55.9932 42.9376C55.538 43.2654 55.471 43.2846 54.8812 43.2164C54.0903 43.1383 53.259 42.867 52.9236 42.5963C52.776 42.4899 52.6285 42.3932 52.5749 42.3932C52.5213 42.3931 52.374 42.4895 52.2267 42.5956Z" fill="#66788A"/>
<path d="M52.1547 49.1327C50.682 50.2995 49.9344 52.5196 50.0854 55.2331C50.2089 57.4156 50.6266 59.0479 51.4595 60.5552C51.7282 61.0479 52.1046 61.9174 52.2796 62.468C52.4412 63.0185 52.616 63.4822 52.6429 63.5112C52.6697 63.5305 52.7364 63.3182 52.7897 63.0382C52.9094 62.3528 53.3368 61.2621 53.8182 60.4225C54.6873 58.8881 55.0602 57.1021 55.0569 54.5625C55.0544 52.7375 55.0273 52.5057 54.6911 51.646C54.3279 50.6607 53.643 49.6074 53.0124 49.066L52.6367 48.7469L52.1547 49.1327Z" fill="#66788A"/>
<path d="M37.643 51.5022C36.9865 51.685 36.558 51.9645 36.1968 52.4663C35.9426 52.7943 35.9026 53.0067 35.9039 53.9627C35.9056 55.2663 36.1207 55.7686 36.8854 56.3005C37.3013 56.5906 37.6633 56.7069 39.0575 57.0077C41.484 57.5221 42.5434 57.9191 43.7508 58.7991C44.7569 59.5148 45.616 60.5199 46.0193 61.428C46.1805 61.7662 46.2476 61.8049 47.0922 61.9892C47.6016 62.096 48.0842 62.1834 48.178 62.1835C48.3121 62.1837 48.3385 61.9133 48.2702 60.8994C48.0507 57.1332 46.1034 54.157 42.67 52.338C41.2081 51.5543 40.7522 51.4283 39.3851 51.3882C38.5542 51.368 38.0181 51.4061 37.643 51.5022Z" fill="#66788A"/>
<path d="M64.6488 51.4731C64.0727 51.5981 63.4163 51.8774 62.5056 52.3592C59.8671 53.7469 58.074 55.8886 57.2734 58.5722C56.9399 59.692 56.769 62.1927 57.0236 62.193C57.1174 62.1931 57.5998 62.1067 58.1089 62.001C58.9531 61.8185 59.02 61.7799 59.1804 61.4421C59.8485 59.9172 61.629 58.3741 63.4509 57.7387C64.0001 57.5462 65.0585 57.2576 65.7955 57.1039C67.6579 56.71 68.033 56.5849 68.4614 56.2087C69.1441 55.6301 69.2643 55.3116 69.2761 54.0466C69.2747 53.0231 69.2343 52.8396 68.9791 52.482C68.6435 52.0278 68.0265 51.6699 67.3427 51.4953C66.8333 51.3789 65.1713 51.3578 64.6488 51.4731Z" fill="#66788A"/>
<path d="M36.044 58.5398C34.101 58.8081 32.2927 59.5787 31.771 60.3699C31.1558 61.3059 31.8809 62.3689 33.5034 62.95C34.7638 63.3955 35.072 63.3379 36.4511 62.3641C37.9642 61.3035 38.4465 61.1592 40.3363 61.1612C41.4621 61.1721 42.0519 61.221 42.8562 61.3957C43.4461 61.5122 43.9421 61.5996 43.9689 61.5803C44.0626 61.5128 43.0964 60.5655 42.4524 60.082C40.6547 58.7572 38.4158 58.2237 36.044 58.5398Z" fill="#66788A"/>
<path d="M66.6689 58.534C64.6857 58.7926 62.9044 59.708 61.5392 61.1743C61.3385 61.3865 61.2047 61.5795 61.2316 61.5988C61.2584 61.6182 61.7542 61.5318 62.3437 61.4166C63.1476 61.2436 63.7373 61.196 64.8631 61.1875C66.7528 61.1895 67.2087 61.3349 68.8185 62.447C69.838 63.1627 70.066 63.2691 70.4681 63.2696C71.232 63.2704 72.5447 62.7214 73.0801 62.1812C74.2044 61.0527 73.5461 59.8739 71.3739 59.1184C69.899 58.5954 67.9687 58.3616 66.6689 58.534Z" fill="#66788A"/>
<path d="M49.389 65.8542C43.6539 66.7268 39.3556 69.6093 38.0472 73.4511C37.7001 74.455 37.7431 76.5697 38.1332 77.6226C38.456 78.521 39.6781 80.3763 40.2819 80.8984L40.671 81.2367L41.4214 81.1024C41.8368 81.0352 42.1717 80.939 42.1716 80.8811C42.1716 80.8328 41.9568 80.6201 41.7019 80.4074C41.0444 79.8467 40.2387 78.6774 39.8085 77.6727C39.4993 76.9192 39.4453 76.6198 39.4304 75.4997C39.415 73.9933 39.6151 73.3079 40.431 72.0438C41.0997 71.0017 41.8894 70.2107 43.1079 69.3623C44.313 68.5332 45.0229 68.1766 46.4697 67.6857C53.3689 65.3273 61.7481 67.3351 64.7967 72.0699C65.6159 73.3261 65.8045 74.0119 65.8065 75.5279C65.7946 76.6576 65.7547 76.9473 65.4341 77.7001C65.0199 78.6846 64.3912 79.5916 63.6148 80.3343C63.3204 80.614 63.0795 80.8745 63.0795 80.9227C63.0796 80.9614 63.4148 81.0583 63.8303 81.1263L64.581 81.2623L64.9693 80.9248C65.4646 80.4908 66.4679 79.1014 66.8154 78.3582C68.3791 75.0092 67.1144 71.3868 63.4521 68.7661C61.3995 67.2961 58.3155 66.1727 55.2324 65.7735C53.9455 65.608 50.7022 65.6528 49.389 65.8542Z" fill="#66788A"/>
<path d="M51.3624 67.9903C47.4091 68.2758 43.9534 69.9233 42.3616 72.2487C41.5189 73.4838 41.2919 74.1691 41.307 75.4534C41.3092 77.066 41.8603 78.264 43.1755 79.6076C44.1418 80.5839 44.0613 80.5645 45.495 80.2667L46.7277 80.0169L45.9899 79.4754C44.3129 78.2473 43.6278 77.0492 43.6256 75.4173C43.637 73.8723 44.3858 72.5599 45.9122 71.451C49.5408 68.7995 55.6255 68.8156 59.3147 71.4654C60.8441 72.5775 61.5964 73.8915 61.5985 75.4944C61.6005 77.0394 60.8383 78.3229 59.2182 79.5185L58.5219 80.0295L59.7553 80.2916L61.0021 80.5536L61.5108 80.139C61.8054 79.9075 62.2738 79.4349 62.5682 79.0779C64.2676 77.0133 64.4253 74.6284 63.0017 72.4639C61.041 69.4684 56.2673 67.6286 51.3624 67.9903Z" fill="#66788A"/>
<path d="M51.1394 71.5918C49.3439 71.8602 47.71 72.7758 46.9476 73.9337C46.5597 74.5417 46.5197 74.6671 46.5209 75.5555C46.522 76.4439 46.5624 76.5695 46.9519 77.1782C49.1006 80.4346 56.0431 80.4517 58.2636 77.2096C58.6917 76.5824 58.7183 76.4762 58.7171 75.5686C58.7159 74.6609 58.689 74.5546 58.2593 73.9265C56.997 72.0905 54.0874 71.1314 51.1394 71.5918Z" fill="#66788A"/>
<path d="M46.1533 81.7351C45.4297 81.8791 45.202 81.9755 45.6041 81.9759C46.0196 81.9763 47.012 82.4699 47.6426 82.992C48.6623 83.8235 49.4013 85.2534 49.4162 86.3928C49.432 88.1406 48.0409 90.2442 45.7112 92.0184C44.6669 92.8091 42.5912 94.1298 42.5911 93.9946C42.591 93.956 42.8587 93.6859 43.18 93.3869C44.0634 92.5477 45.6426 90.792 46.1375 90.0876C48.1441 87.1929 47.8329 85.0007 45.2584 84.0516C44.2259 83.6739 43.7433 83.6154 42.8858 83.7787C40.6883 84.1915 38.9207 85.3001 38.1184 86.7573C37.0489 88.7357 37.348 91.9419 38.9074 95.4873C39.1494 96.0477 39.4586 96.7819 39.5662 97.1199C39.9968 98.3467 41.0166 99.2748 42.2902 99.5852C43.3225 99.8373 43.4565 99.8085 43.63 99.268C43.7101 98.9977 44.0444 98.3897 44.352 97.9169C44.8335 97.1739 45.0075 96.9906 45.5299 96.7497C46.3335 96.3643 46.6819 96.3068 47.2182 96.4908C47.835 96.7039 48.3319 97.4769 48.5747 98.5973C48.8444 99.8819 49.2604 100.249 50.2117 100.028C50.828 99.884 51.3503 99.6335 52.0734 99.1418L52.6358 98.7561L53.4407 99.2881C54.3797 99.9264 55.2244 100.198 55.7603 100.053C56.2962 99.9091 56.5504 99.5521 56.6834 98.7798C56.843 97.8723 56.9766 97.5151 57.3914 97.0135C57.7527 96.56 58.342 96.3192 58.838 96.4067C59.0123 96.4455 59.4146 96.5908 59.7364 96.7359C60.2192 96.9682 60.4071 97.1519 60.9174 97.9153C61.2532 98.4177 61.589 99.0361 61.6698 99.2969C61.8447 99.8282 61.9788 99.8573 63.0105 99.6073C64.3235 99.2901 65.4077 98.2484 65.7679 96.9548C65.8613 96.6556 66.0483 96.1923 66.1953 95.9124C66.6365 95.0632 67.3574 92.9203 67.5971 91.7521C67.8634 90.4199 67.7802 88.363 67.444 87.455C66.7312 85.6195 64.8665 84.2657 62.373 83.7995C61.515 83.6344 61.046 83.6919 60.0011 84.0674C57.9113 84.8376 57.2702 86.4592 58.2379 88.5266C58.9234 89.9854 59.9437 91.2998 61.7553 93.0495C62.2653 93.5521 62.6948 93.9968 62.6948 94.0257C62.695 94.1513 60.6427 92.8551 59.6096 92.0719C55.9739 89.3063 54.9649 86.3988 56.7574 83.8611C57.3193 83.0699 58.6583 82.1733 59.5695 82.0005C59.9312 81.9236 59.9312 81.9236 59.395 81.7975C59.1001 81.7393 58.336 81.6612 57.6927 81.6315C56.6606 81.5822 56.4596 81.6013 55.7898 81.8226C55.2137 82.0151 54.9459 82.179 54.6515 82.5263C53.6076 83.6936 53.7164 84.8331 55.3854 90.2424C56.1527 92.7345 56.0593 93.0627 54.1046 94.6152C53.3549 95.2131 52.6988 95.6952 52.6452 95.6952C52.5782 95.6951 51.9342 95.2116 51.1829 94.6121C50.1095 93.7612 49.774 93.4229 49.6261 93.0461C49.3706 92.4375 49.3699 91.8485 49.6369 91.057C50.331 88.9334 51.1978 85.6705 51.2504 84.9271C51.4351 82.687 50.2944 81.585 47.8016 81.6017C47.2521 81.6011 46.5016 81.6679 46.1533 81.7351ZM44.5899 85.2772C45.3677 85.6643 45.5557 85.9445 45.6372 86.7654C45.719 87.76 45.479 88.7254 45.0105 89.1884C44.8098 89.391 44.1268 89.8151 43.5107 90.1234C42.0374 90.8751 41.8098 91.0293 41.5021 91.4635C41.2613 91.8012 41.1943 91.8301 40.7386 91.8007L40.2427 91.7712L39.8383 90.0616C39.4744 88.4872 39.4607 88.3038 39.6208 87.7439C39.9276 86.6434 40.8245 85.8526 42.3652 85.3424C43.3699 85.0055 43.9998 84.9966 44.5899 85.2772ZM62.871 85.3644C64.0375 85.7422 64.8424 86.3031 65.299 87.0375C65.8228 87.8781 65.8505 88.5058 65.4106 90.3014L65.0373 91.7977L64.5414 91.8261C64.0858 91.8546 64.0187 91.8255 63.7636 91.468C63.5622 91.1781 63.0793 90.8493 61.9527 90.2494C61.1077 89.8043 60.3163 89.3206 60.1955 89.1853C59.6855 88.6247 59.4015 86.7222 59.7491 86.0756C59.9095 85.7571 60.4986 85.2846 60.8737 85.1787C61.3828 85.0248 62.0262 85.0834 62.871 85.3644Z" fill="#66788A"/>
<path d="M38.6583 99.6585C38.6183 99.784 38.5654 100.334 38.5393 100.894C38.4344 102.642 38.0331 103.182 35.2079 105.294C33.8422 106.326 33.3603 106.74 33.3606 106.924C33.3607 107.059 33.4413 107.165 33.5351 107.175C33.9372 107.205 34.5134 107.138 35.0092 107.013C35.3039 106.936 35.5853 106.878 35.6523 106.878C35.8936 106.878 36.3101 107.651 36.3107 108.124C36.3112 108.54 36.2577 108.627 35.8426 108.887C35.5882 109.051 35.1461 109.214 34.8781 109.253C34.1813 109.339 33.1632 109.724 32.9089 109.984C32.3869 110.525 32.8701 111.018 34.4657 111.579C36.0345 112.131 37.2679 112.393 38.5948 112.453C40.0022 112.522 40.7258 112.388 41.4087 111.944L41.9175 111.607L41.8495 110.844C41.7681 110.09 41.7815 110.071 42.1831 109.743C44.1779 108.104 45.3679 105.933 45.5123 103.644C45.591 102.35 45.5237 102.167 44.8398 101.867C43.6597 101.344 42.6419 101.98 42.3892 103.409C42.2695 104.124 42.0019 104.49 41.6266 104.451C41.2111 104.412 40.9022 103.939 40.606 102.915C40.1347 101.263 39.2075 99.4467 38.8323 99.4463C38.7652 99.4462 38.685 99.5427 38.6583 99.6585Z" fill="#66788A"/>
<path d="M66.1337 99.7169C65.7189 100.17 64.9573 101.937 64.5838 103.307C64.1704 104.833 63.1787 104.899 62.9221 103.431C62.6655 102.002 61.6461 101.363 60.4674 101.883C59.7842 102.182 59.7175 102.365 59.7996 103.659C59.9635 105.958 61.0249 107.958 62.957 109.592L63.5608 110.114L63.4814 110.867C63.4019 111.562 63.4288 111.639 63.7106 111.862C64.3412 112.355 64.8238 112.462 66.3383 112.463C67.96 112.465 69.0185 112.273 70.8538 111.628C72.4613 111.06 72.9432 110.568 72.4198 110.027C72.1648 109.766 71.1457 109.378 70.4486 109.291C69.8454 109.213 69.0674 108.749 68.9732 108.41C68.8923 108.063 69.1059 107.397 69.4003 107.117C69.6413 106.895 69.6547 106.895 70.2982 107.041C71.1696 107.235 71.6388 107.293 71.8397 107.206C72.2014 107.043 71.7584 106.55 70.162 105.37C67.2374 103.214 66.8615 102.73 66.7518 100.857C66.683 99.563 66.5218 99.2828 66.1337 99.7169Z" fill="#66788A"/>
<path d="M49.8801 102.278C49.6526 102.557 48.9973 103.619 48.4492 104.632C47.8876 105.655 47.1788 106.784 46.871 107.141C45.9745 108.212 45.5201 109.216 45.5079 110.123C45.4956 110.973 45.6972 111.369 46.3679 111.824C46.8106 112.124 47.0391 112.626 47.04 113.331L47.0407 113.843L47.684 113.843C48.9573 113.835 50.1626 113.189 50.6573 112.244C51.0048 111.558 51.1247 110.979 50.9503 110.834C50.1586 110.128 50.047 106.865 50.7272 104.306C50.8339 103.911 50.9135 103.302 50.8996 102.955C50.8711 101.69 50.5492 101.477 49.8801 102.278Z" fill="#66788A"/>
<path d="M54.5303 102.032C54.3431 102.389 54.3714 103.48 54.5869 104.349C55.1797 106.638 55.2099 109.188 54.6618 110.23C54.2741 110.983 54.2883 111.62 54.7047 112.306C55.2957 113.262 56.4089 113.843 57.6687 113.854L58.2986 113.855L58.2979 113.343C58.297 112.648 58.5108 112.165 58.9661 111.828C59.1803 111.664 59.4614 111.394 59.5952 111.22C59.9029 110.795 59.9013 109.627 59.5787 108.931C59.2965 108.342 58.5176 107.183 58.1553 106.806C58.0211 106.67 57.4166 105.665 56.8121 104.583C55.3477 101.946 54.8645 101.395 54.5303 102.032Z" fill="#66788A"/>
<path d="M27.1271 105.681C26.9397 105.836 26.3506 106.289 25.8016 106.703C24.5297 107.648 24.1953 108.218 24.2771 109.241C24.454 111.269 26.8955 112.914 31.3331 113.99C32.6202 114.3 32.8614 114.33 33.8666 114.292C35.1263 114.245 35.7158 114.033 35.7152 113.628C35.715 113.444 35.5004 113.319 34.5081 112.931C32.2553 112.05 30.3373 110.918 29.4246 109.913C28.834 109.275 28.4039 108.357 28.4031 107.739C28.4026 107.392 28.3219 107.17 28.1072 106.967L27.8254 106.686L28.1733 106.3C28.5748 105.866 28.5343 105.644 28.0383 105.508C27.5556 105.382 27.4752 105.392 27.1271 105.681Z" fill="#66788A"/>
<path d="M77.2389 105.571C76.8102 105.696 76.7435 105.937 77.0521 106.246C77.3608 106.565 77.4015 106.952 77.1337 107.106C77.0265 107.173 76.9332 107.492 76.8935 107.936C76.7351 109.713 74.5796 111.506 70.8691 112.951C69.8376 113.355 69.6234 113.481 69.6236 113.664C69.6241 114.07 70.2141 114.283 71.474 114.332C72.4793 114.372 72.7205 114.343 74.0469 114.026C76.4586 113.44 78.5749 112.544 79.6995 111.618C79.9673 111.396 80.3688 110.943 80.5961 110.596C80.9707 110.036 81.0107 109.872 81.0096 109.099C81.0083 108.066 80.7934 107.738 79.4384 106.722C78.9688 106.374 78.4322 105.949 78.2443 105.775C77.8686 105.465 77.7212 105.426 77.2389 105.571Z" fill="#66788A"/>
<path d="M4.19527 145.904L4.22119 165.457L52.7382 165.509L101.255 165.561L101.229 146.007L101.203 126.454L52.6864 126.402L4.16934 126.35L4.19527 145.904ZM64.1205 137.828C66.0779 138.351 67.4462 139.28 68.4533 140.739C69.635 142.449 70.1474 144.815 69.8691 147.171C69.4186 151.052 67.2372 153.493 63.5792 154.184C62.5207 154.386 60.3227 154.403 59.2905 154.228C57.025 153.84 55.013 152.601 53.9922 150.978C53.2401 149.78 52.8901 148.669 52.7272 147.037C52.2518 142.334 54.4987 138.744 58.4914 137.812C59.6972 137.533 59.8313 137.524 61.6138 137.564C62.9273 137.585 63.3831 137.634 64.1205 137.828ZM23.3845 143.529C23.4457 149.275 23.4457 149.304 23.7549 149.98C23.9968 150.492 24.2116 150.763 24.6946 151.101C25.4056 151.623 25.9687 151.769 27.2687 151.77C29.4399 151.773 30.4977 151.03 30.9376 149.206C31.0975 148.53 31.1362 147.371 31.1305 143.074L31.1235 137.773L33.0668 137.775L35.0236 137.777L34.9912 143.687C34.9454 149.519 34.9455 149.615 34.6382 150.33C33.8232 152.27 32.3103 153.446 29.8584 154.052C28.9474 154.283 28.5855 154.321 27.2587 154.31C25.972 154.308 25.5431 154.269 24.6851 154.066C22.6875 153.59 21.3193 152.71 20.4195 151.357C19.5063 149.956 19.4792 149.773 19.4708 143.409L19.4633 137.76L21.3933 137.763L23.3366 137.765L23.3845 143.529ZM50.4249 139.145L50.4267 140.497L46.5399 140.493L42.6532 140.489L42.6826 142.43L42.7254 144.361L46.3172 144.365L49.8957 144.359L49.8975 145.759L49.8994 147.159L46.2807 147.156L42.662 147.152L42.6666 150.58L42.6711 154.008L40.7278 154.006L38.7844 154.003L38.7737 145.892L38.7629 137.781L44.593 137.787L50.4231 137.794L50.4249 139.145ZM81.3161 138.02C84.4798 138.574 85.9427 140.081 85.9463 142.804C85.9485 144.465 85.347 145.701 84.0884 146.588C82.8163 147.484 81.1683 147.859 78.4208 147.866L76.9733 147.864L76.9774 150.954L76.9815 154.044L75.0382 154.042L73.0948 154.04L73.084 145.919L73.0733 137.798L76.8662 137.851C79.0777 137.882 80.9273 137.952 81.3161 138.02Z" fill="#66788A"/>
<path d="M60.277 140.112C58.2537 140.496 57.1299 141.992 56.8654 144.695C56.6672 146.848 57.0051 148.963 57.7437 150.084C58.5361 151.292 59.5956 151.805 61.2843 151.807C64.0452 151.8 65.3702 150.411 65.7278 147.157C66.1118 143.633 65.0898 141.092 62.9845 140.298C62.408 140.095 60.9335 139.987 60.277 140.112Z" fill="#66788A"/>
<path d="M76.9662 142.785L76.9691 145.035L77.9476 145.094C79.2209 145.153 80.3466 145.039 80.8555 144.779C81.4984 144.451 81.6989 144.065 81.7647 143.09C81.8961 141.101 81.0777 140.53 78.1024 140.527L76.9632 140.526L76.9662 142.785Z" fill="#66788A"/>
</g>
<defs>
<filter id="filter0_d" x="0.00244141" y="0.530952" width="105.253" height="173.03" filterUnits="userSpaceOnUse" color-interpolation-filters="sRGB">
<feFlood flood-opacity="0" result="BackgroundImageFix"/>
<feColorMatrix in="SourceAlpha" type="matrix" values="0 0 0 0 0 0 0 0 0 0 0 0 0 0 0 0 0 0 127 0"/>
<feOffset dy="4"/>
<feGaussianBlur stdDeviation="2"/>
<feColorMatrix type="matrix" values="0 0 0 0 0 0 0 0 0 0 0 0 0 0 0 0 0 0 0.25 0"/>
<feBlend mode="normal" in2="BackgroundImageFix" result="effect1_dropShadow"/>
<feBlend mode="normal" in="SourceGraphic" in2="effect1_dropShadow" result="shape"/>
</filter>
</defs>
</svg>
