<svg width="250" height="250" viewBox="0 0 250 250" fill="none" xmlns="http://www.w3.org/2000/svg">
<g clip-path="url(#clip0)">
<path d="M125 250C194.036 250 250 194.036 250 125C250 55.9644 194.036 0 125 0C55.9644 0 0 55.9644 0 125C0 194.036 55.9644 250 125 250Z" fill="#66788A" fill-opacity="0.2"/>
<path fill-rule="evenodd" clip-rule="evenodd" d="M42.5059 58.5107L57.9416 65.0563L68.524 86.0751L70.3121 89.9298L75.7127 88.8388L86.9156 86.9115L95.0165 89.3843L98.5196 91.5298L100.417 105.53L102.534 109.894L107.642 115.24L109.759 116.44L114.503 108.33L123.553 93.0571L124.684 90.839L137.784 90.148L145.922 89.2025C145.922 89.2025 150.848 88.3297 151.578 86.8024C152.308 85.2751 156.759 78.4748 156.759 78.4748L163.181 68.7291L169.203 63.9654L174.238 59.4199L175.151 59.0199C175.151 59.0199 177.231 60.8017 179.128 60.3653C180.989 59.9289 182.923 58.2562 183.251 57.6743C183.544 57.1289 185.587 50.6559 186.026 48.6195C186.464 46.583 186.937 38.9465 186.937 38.9465L185.077 31.6736C185.077 31.6736 181.974 21.8188 181.866 20.2915C181.755 18.7641 180.114 12.4003 180.114 12.4003L178.07 1.41821C178.07 1.41821 180.332 2.9819 180.587 3.27281C180.844 3.56372 188.324 13.564 188.324 13.564L195.586 25.8917L199.454 36.2555L201.716 47.4195L202.446 59.5289L201.278 72.3657L196.935 87.2024L191.681 97.7118L184.055 111.53L175.151 126.658L169.02 140.367L165.517 155.714L163.985 171.714C163.985 171.714 161.832 178.114 161.138 179.059C160.445 180.005 156.687 183.788 156.687 183.788L154.534 185.242L144.754 187.314L126.399 187.532L107.241 187.714C107.241 187.714 96.6586 186.841 95.7464 186.624C94.8341 186.406 88.2657 184.805 86.1492 182.696C84.0328 180.587 80.6755 174.987 80.2012 171.786C79.7267 168.586 79.6537 159.968 79.6537 159.968C79.6537 159.968 78.1212 150.767 77.3548 147.714C76.5521 144.695 73.5234 135.422 72.684 133.567C71.8447 131.713 67.8672 123.312 67.1373 122.512C66.4075 121.712 59.6933 109.021 58.27 107.894C56.8469 106.767 49.7312 91.8207 48.9649 89.9661C48.1985 88.1115 44.44 77.9294 44.6224 77.4203C44.8048 76.8748 42.214 64.6927 42.141 63.9654C42.068 63.2382 42.141 58.3289 42.5059 58.5107Z" fill="white"/>
<path opacity="0.18" fill-rule="evenodd" clip-rule="evenodd" d="M86.0762 89.7115C86.0762 89.7115 87.4629 100.948 90.7106 112.73C91.3675 115.094 91.8418 117.494 92.0243 119.931C92.4257 125.167 91.6958 130.949 83.4124 116.658C80.8215 112.185 75.2384 100.148 75.0559 88.4023L80.8581 87.2388L85.5289 87.3115C85.5289 87.2751 86.4777 86.9478 86.0762 89.7115Z" fill="#E8E9EA"/>
<path opacity="0.33" fill-rule="evenodd" clip-rule="evenodd" d="M88.6307 89.7115C88.6307 89.7115 90.0172 100.948 93.2649 112.73C93.9218 115.094 94.3962 117.494 94.5786 119.931C94.9801 125.167 94.2503 130.949 85.9668 116.658C83.3759 112.185 77.7927 100.148 77.6104 88.4023L83.4124 87.2388L88.0832 87.3115C88.0832 87.2751 89.032 86.9478 88.6307 89.7115Z" fill="#E8E9EA"/>
<path opacity="0.19" fill-rule="evenodd" clip-rule="evenodd" d="M180.515 14.1458C180.551 14.4004 180.661 14.655 180.806 14.9095C182.632 17.7823 194.71 38.7648 193.98 59.8926C193.177 83.0206 184.019 94.0754 181.573 99.421C179.128 104.767 163.437 127.313 161.577 142.804C159.715 158.296 160.409 169.241 158.219 173.605C156.03 177.969 151.359 181.532 145.411 181.86C145.374 181.86 145.337 181.86 145.265 181.86C144.169 182.005 129.172 183.969 94.5786 181.969C94.5056 181.969 94.4326 181.969 94.3962 181.933C88.1197 181.059 83.0474 176.441 82.5731 168.477C82.0986 160.477 82.8285 149.567 72.7206 127.749C62.6125 105.93 52.4314 91.8571 48.4904 78.7294C45.5712 68.9474 45.2793 63.8563 45.3523 61.3472C45.3887 60.4018 44.7318 59.5653 43.7832 59.3472C42.7614 59.0926 42.0316 59.7472 42.141 60.8018C42.7614 66.3292 44.3669 78.8386 46.7754 84.3297C49.9865 91.6753 57.2848 106.767 60.7515 111.312C64.2181 115.858 70.7136 128.767 71.2609 130.876C71.8082 132.986 77.2089 145.531 78.0117 152.513C78.6685 157.968 79.2524 160.04 79.4714 160.695C79.5443 160.878 79.5808 161.095 79.5808 161.277C79.6173 163.204 79.9457 172.95 82.0987 176.441C84.5071 180.332 86.9886 184.769 92.2797 185.969C97.571 187.169 115.926 187.097 115.926 187.097L133.989 187.46C134.902 187.46 136.398 187.46 137.309 187.423C146.103 187.023 150.191 186.515 151.87 186.259C154.278 185.896 156.504 184.878 159.679 182.805C160.445 182.332 163.656 178.368 163.948 172.586C164.13 169.351 165.152 158.841 165.407 157.641C165.663 156.441 166.794 147.458 168.582 142.622C170.224 138.222 175.151 125.931 181.427 116.185C186.937 107.676 188.396 104.076 188.652 103.312C188.69 103.203 188.762 103.094 188.798 102.985C189.856 101.203 198.395 86.8751 199.125 81.275C199.125 81.2023 199.161 81.1296 199.161 81.0569C199.418 80.0023 201.425 72.1475 201.753 69.4565C202.081 66.5837 202.702 53.2742 201.753 47.4922C200.804 41.7102 198.323 31.1645 196.535 28.0008C194.856 25.019 188.871 14.655 188.179 13.4186C188.141 13.3458 188.069 13.2731 188.032 13.2004L182.157 5.63652C176.465 -1.85459 179.055 5.23651 179.31 6.87292L180.515 14.1458Z" fill="#962038"/>
<path opacity="0.08" fill-rule="evenodd" clip-rule="evenodd" d="M182.194 54.4379C182.194 54.4379 187.63 67.8928 180.587 81.966C173.546 96.0391 172.086 96.0754 172.086 96.0754C172.086 96.0754 172.56 86.3297 172.086 80.7658C171.612 75.2021 169.897 68.4018 167.816 64.0381C167.816 64.0381 169.239 61.6744 170.845 61.129C172.669 60.5107 177.669 59.4199 177.669 59.4199C177.669 59.4199 181.902 56.1106 182.194 54.4379Z" fill="#E5E5E5"/>
<path opacity="0.3" d="M162.817 172.586C162.817 172.586 162.452 184.769 149.68 185.169" stroke="#962038" stroke-width="1.5" stroke-linecap="round"/>
<path opacity="0.2" fill-rule="evenodd" clip-rule="evenodd" d="M183.653 54.4379C183.653 54.4379 189.09 67.8928 182.047 81.966C175.005 96.0391 173.546 96.0754 173.546 96.0754C173.546 96.0754 174.02 86.3297 173.546 80.7658C173.071 75.2021 171.356 68.4018 169.276 64.0381C169.276 64.0381 170.699 61.6744 172.305 61.129C174.129 60.5107 179.128 59.4199 179.128 59.4199C179.128 59.4199 183.362 56.1106 183.653 54.4379Z" fill="#E5E5E5"/>
<path d="M88.4481 184.296C80.4202 177.315 80.0917 170.733 79.8363 163.241C79.7633 160.332 79.4348 157.422 78.8875 154.55C75.8953 139.022 72.3557 131.858 67.0644 122.185C64.8384 118.112 62.4665 114.185 59.9487 110.294C43.0168 84.2206 41.9586 64.6563 42.0316 59.4926C42.0316 58.838 42.7249 58.4016 43.3087 58.6562L58.2336 64.9836C58.7445 65.2019 59.1458 65.6019 59.3648 66.0746L69.9837 88.8388C70.2391 89.3843 70.8596 89.7115 71.4433 89.5661L85.8208 86.6933C86.1128 86.6206 86.3682 86.6206 86.6601 86.6933L91.1485 87.5661C91.9148 87.7115 92.6811 87.2024 92.8636 86.4388L93.6298 82.8023C93.7394 82.2933 94.0678 81.8931 94.5422 81.675L119.137 70.6566C119.903 70.3293 120.487 69.6747 120.706 68.8383L127.165 46.2558C127.311 45.674 127.64 45.2012 128.114 44.8012L149.497 26.6189C150.155 26.0371 151.212 26.2189 151.651 26.9825L164.641 49.0196C165.043 49.674 165.918 49.8559 166.503 49.3469C170.152 46.4376 181.536 37.3101 184.858 34.2555C185.441 33.7101 185.66 32.8736 185.405 32.1464C180.953 18.9824 178.253 1.52729 178.034 0.145437C178.034 0.109073 178.07 0.109073 178.07 0.145437C185.879 8.94569 188.47 12.2185 193.688 21.7824C196.499 26.9462 198.542 32.5099 200.11 38.1829C205.876 59.1289 200.11 77.5659 199.235 80.9841C199.016 81.8204 198.359 83.6387 198.104 84.4387C195.769 91.3117 179.128 120.112 177.887 122.112" stroke="#353D47" stroke-width="1.08"/>
<path d="M88.4481 184.296C80.4202 177.315 80.0917 170.733 79.8363 163.241C79.7633 160.332 79.4348 157.422 78.8875 154.55C75.8953 139.022 72.3557 131.858 67.0644 122.185C64.8384 118.112 62.4665 114.185 59.9487 110.294C43.0168 84.2206 41.9586 64.6563 42.0316 59.4926C42.0316 58.838 42.7249 58.4016 43.3087 58.6562L58.2336 64.9836C58.7445 65.2019 59.1458 65.6019 59.3648 66.0746L69.9837 88.8388C70.2391 89.3843 70.8596 89.7115 71.4433 89.5661L85.8208 86.6933C86.1128 86.6206 86.3682 86.6206 86.6601 86.6933L91.1485 87.5661C91.9148 87.7115 92.6811 87.2024 92.8636 86.4388L93.6298 82.8023C93.7394 82.2933 94.0678 81.8931 94.5422 81.675L119.137 70.6566C119.903 70.3293 120.487 69.6747 120.706 68.8383L127.165 46.2558C127.311 45.674 127.64 45.2012 128.114 44.8012L149.497 26.6189C150.155 26.0371 151.212 26.2189 151.651 26.9825L164.641 49.0196C165.043 49.674 165.918 49.8559 166.503 49.3469C170.152 46.4376 181.536 37.3101 184.858 34.2555C185.441 33.7101 185.66 32.8736 185.405 32.1464C180.953 18.9824 178.253 1.52729 178.034 0.145437C178.034 0.109073 178.07 0.109073 178.07 0.145437C185.879 8.94569 188.47 12.2185 193.688 21.7824C196.499 26.9462 198.542 32.5099 200.11 38.1829C205.876 59.1289 200.11 77.5659 199.235 80.9841C199.016 81.8204 198.359 83.6387 198.104 84.4387C195.769 91.3117 179.128 120.112 177.887 122.112" stroke="#333435" stroke-width="1.5" stroke-linecap="round"/>
<path d="M92.3527 87.7116L99.286 90.5117C99.7239 90.6934 100.052 91.0934 100.125 91.5663L102.351 106.294C102.461 106.949 102.716 107.53 103.154 108.039L108.336 114.149C109.358 115.349 111.255 115.167 112.058 113.821L124.866 91.6753C125.158 91.2026 125.633 90.8753 126.18 90.839L148.001 89.1298C148.001 89.1298 151.067 89.0207 154.023 83.3841C155.774 80.075 158.839 75.2749 161.066 71.8929C162.743 69.3474 164.824 67.0564 167.196 65.1292L172.961 60.4745C173.765 59.8199 174.786 59.5289 175.808 59.638C177.669 59.8199 180.844 59.638 182.851 56.5835C183.289 55.9289 183.581 55.1652 183.69 54.4015L185.587 43.2376C185.77 42.1831 185.77 41.1285 185.624 40.0738L185.551 32.9828" stroke="#333435" stroke-width="1.5"/>
<path fill-rule="evenodd" clip-rule="evenodd" d="M151.761 86.2932C151.431 86.6934 151.359 87.2388 151.504 87.7479C151.979 89.3842 153.257 93.7844 153.438 95.5662C153.657 97.5299 154.059 105.748 154.168 107.494C154.168 107.712 154.206 107.93 154.242 108.148L156.468 120.221C156.468 120.221 154.461 106.294 154.534 105.894C154.606 105.494 161.503 108.367 161.503 108.367L155.555 105.712C154.753 105.348 154.242 104.585 154.206 103.748C154.095 100.73 153.876 93.8208 153.876 93.5662C153.876 93.2389 152.672 87.5661 152.308 86.5115C152.198 85.9297 151.979 86.0388 151.761 86.2932Z" fill="#333435"/>
<path opacity="0.31" fill-rule="evenodd" clip-rule="evenodd" d="M152.125 85.9297C151.797 86.3297 151.723 86.8751 151.87 87.3843C152.344 89.0207 153.621 93.4208 153.804 95.2027C154.023 97.1664 154.206 105.13 154.534 107.13C154.57 107.349 154.57 107.567 154.606 107.785L156.832 119.858C156.832 119.858 154.642 105.858 154.716 105.421C154.898 105.385 161.54 108.33 161.54 108.33L155.957 105.312C155.153 104.948 154.642 104.185 154.606 103.348C154.497 100.33 154.278 93.4208 154.278 93.1663C154.278 92.839 153.074 87.1661 152.708 86.1116C152.563 85.566 152.344 85.6751 152.125 85.9297Z" fill="#962038"/>
<path fill-rule="evenodd" clip-rule="evenodd" d="M71.7352 90.3298L70.896 97.6391C70.8595 97.821 70.896 98.0027 70.9689 98.1845C71.2609 98.9118 72.0637 101.021 72.4286 102.367C72.5016 102.548 72.2097 102.657 72.1001 102.476C71.5528 101.421 70.75 99.7482 70.3851 98.9845C70.2391 98.6937 69.9837 98.5482 69.6918 98.5482H67.6482C67.4293 98.5482 67.3563 98.221 67.5753 98.1482L68.9254 97.6754C69.2903 97.53 69.5822 97.2027 69.6188 96.8027L70.2757 89.8934C70.3121 89.5298 70.6406 89.2753 71.0055 89.3115L71.1879 89.6753C71.5528 89.7115 71.7718 90.0025 71.7352 90.3298Z" fill="#333435"/>
<path opacity="0.15" fill-rule="evenodd" clip-rule="evenodd" d="M71.5162 90.7299L70.4946 98.0028C70.458 98.1846 70.4946 98.3664 70.5676 98.5483C70.823 99.2756 71.8447 101.239 72.2097 102.621C72.2461 102.803 71.9177 102.985 71.8447 102.803C71.3338 101.748 70.3486 100.148 70.0201 99.3483C69.9107 99.0574 69.6188 98.8756 69.3269 98.8756L67.3199 99.021C67.1009 99.021 67.2833 98.4028 67.5023 98.3301L68.597 97.9664C68.9984 97.8573 69.2539 97.4937 69.3269 97.0937L70.0201 89.6753C70.0567 89.3116 70.531 89.5661 70.8959 89.6026L71.0419 90.0026C71.3338 90.1117 71.5892 90.4026 71.5162 90.7299Z" fill="#6F7175"/>
<path fill-rule="evenodd" clip-rule="evenodd" d="M111.109 114.985L105.417 131.095C105.417 131.131 105.344 131.131 105.344 131.095L108.847 115.531C108.883 115.276 109.066 115.058 109.321 114.985L110.598 114.549C110.927 114.403 111.182 114.694 111.109 114.985Z" fill="#333435"/>
<path opacity="0.22" fill-rule="evenodd" clip-rule="evenodd" d="M109.722 114.803L105.307 131.313C105.307 131.349 105.234 131.349 105.234 131.313L107.497 115.494C107.533 115.24 107.679 115.021 107.934 114.912L109.175 114.367C109.503 114.221 109.795 114.476 109.722 114.803Z" fill="#962038"/>
<path fill-rule="evenodd" clip-rule="evenodd" d="M127.457 240.734H126.18C125.997 240.734 125.851 240.589 125.851 240.407C125.851 240.224 125.997 240.079 126.18 240.079H127.457C127.639 240.079 127.785 240.224 127.785 240.407C127.785 240.589 127.639 240.734 127.457 240.734Z" fill="white"/>
<path fill-rule="evenodd" clip-rule="evenodd" d="M139.937 66.4745C139.937 66.4745 143.222 68.8382 149.644 67.6018C150.374 67.311 151.651 67.311 151.761 67.6745C151.87 68.0382 149.608 76.3657 149.608 76.7294H148.22L144.207 88.7296H142.382C142.382 88.7296 148.95 70.4747 149.315 68.2928C149.388 68.2201 144.207 69.1291 139.573 67.0927C139.573 66.9837 139.573 66.2564 139.937 66.4745Z" fill="#9AAAC1"/>
<path opacity="0.29" fill-rule="evenodd" clip-rule="evenodd" d="M141.032 66.1109C141.032 66.1109 144.316 68.4746 150.738 67.2383C151.468 66.9473 152.746 66.9473 152.855 67.311C152.964 67.6746 150.702 76.0022 150.702 76.3657H149.315L145.301 88.3661H143.477C143.477 88.3661 150.044 70.111 150.41 67.9292C150.483 67.8565 145.301 68.7656 140.667 66.7292C140.667 66.62 140.667 65.8927 141.032 66.1109Z" fill="#9AAAC1"/>
<path opacity="0.48" fill-rule="evenodd" clip-rule="evenodd" d="M142.856 91.6389C142.856 91.6389 134.098 119.821 133.624 121.749C133.15 123.676 133.15 132.804 134.828 144.586C135.813 153.422 135.083 180.587 135.558 181.569C136.032 182.551 133.952 148.441 133.332 145.458C132.712 142.441 131.07 126.731 132.237 122.112C133.405 117.494 140.739 94.0389 140.739 94.0389L141.579 91.6389H142.856Z" fill="#B4C1DB"/>
<path opacity="0.12" fill-rule="evenodd" clip-rule="evenodd" d="M144.316 91.6389C144.316 91.6389 135.558 119.821 135.083 121.749C134.609 123.676 134.609 132.804 136.288 144.586C137.273 153.422 136.543 180.587 137.017 181.569C137.492 182.551 135.413 148.441 134.792 145.458C134.171 142.441 132.529 126.731 133.697 122.112C134.864 117.494 142.199 94.0389 142.199 94.0389L143.039 91.6389H144.316Z" fill="#962038"/>
<path opacity="0.48" fill-rule="evenodd" clip-rule="evenodd" d="M109.613 120.003C110.27 122.258 110.525 130.004 110.197 133.495C109.868 137.022 109.431 139.786 108.737 146.84C108.044 153.859 108.956 178.368 108.956 178.368C108.956 178.368 109.394 154.804 109.577 153.023C109.759 151.277 111.656 134.659 111.875 130.186C112.131 125.713 110.854 118.003 110.854 118.003L110.598 116.258L109.613 120.003Z" fill="#B4C1DB"/>
<path opacity="0.46" d="M130.522 92.6571C130.522 92.6571 128.041 99.4937 126.216 99.4937" stroke="#142A51" stroke-width="0.54"/>
<path opacity="0.3" d="M107.46 58.0381C107.46 58.0381 106.876 63.3109 107.314 64.8746C107.788 66.4019 112.496 88.0389 112.678 88.2935C112.824 88.5116 114.612 94.1845 116.254 97.0937C116.838 98.1119 117.787 98.9119 118.918 99.2392C119.466 99.421 120.341 99.421 120.341 99.421" stroke="#962038" stroke-width="0.5"/>
<path opacity="0.3" d="M137.164 58.0016C137.164 58.0016 137.894 65.0927 134.609 76.2567C132.529 85.3478 131.435 89.7115 131.435 89.7115" stroke="#962038" stroke-width="0.5"/>
<path opacity="0.19" d="M137.894 58.0016C137.894 58.0016 138.624 65.0927 135.339 76.2567C133.259 85.3478 132.164 89.7115 132.164 89.7115" stroke="#962038" stroke-width="0.54"/>
<path opacity="0.22" d="M135.083 65.6381C136.031 65.6381 136.798 64.8729 136.798 63.929C136.798 62.9851 136.031 62.2198 135.083 62.2198C134.136 62.2198 133.368 62.9851 133.368 63.929C133.368 64.8729 134.136 65.6381 135.083 65.6381Z" stroke="#962038" stroke-width="0.54"/>
<path opacity="0.22" d="M107.934 65.6381C108.882 65.6381 109.65 64.8729 109.65 63.929C109.65 62.9851 108.882 62.2198 107.934 62.2198C106.987 62.2198 106.219 62.9851 106.219 63.929C106.219 64.8729 106.987 65.6381 107.934 65.6381Z" stroke="#962038" stroke-width="0.54"/>
<path d="M119.283 97.2026L113.481 97.4209C113.007 97.4209 112.642 97.8209 112.642 98.2936V98.9845C112.642 99.4573 113.043 99.8573 113.517 99.8573H116.473" stroke="#962038" stroke-width="0.5"/>
<path d="M118.955 97.5664L113.408 97.7483C112.97 97.7483 112.605 98.0391 112.605 98.4028V98.9118C112.605 99.2755 112.97 99.5664 113.408 99.5664H116.254" stroke="#1951FC" stroke-opacity="0.31" stroke-width="0.5"/>
<path opacity="0.22" d="M122.129 97.021C122.129 97.021 126.946 97.0937 128.953 97.3483C129.428 97.421 129.792 97.821 129.792 98.2937V98.8028C129.792 99.2756 129.428 99.6756 128.917 99.7119L126.07 99.8574" stroke="#142A51" stroke-width="0.5"/>
<path opacity="0.22" d="M125.049 99.8209C125.049 99.8209 124.319 105.094 124.574 113.749C124.939 121.931 124.392 124.222 127.713 126.222" stroke="#142A51" stroke-width="0.5"/>
<path opacity="0.28" d="M125.414 99.8209C125.414 99.8209 124.684 105.094 124.939 113.749C125.304 121.931 124.757 124.222 128.077 126.222" stroke="#962038" stroke-width="0.5"/>
<path d="M126.143 101.857C126.143 101.857 125.414 106.73 125.669 114.694C126.034 122.258 125.487 124.331 128.807 126.185" stroke="white" stroke-width="0.5"/>
<path opacity="0.22" d="M118.772 102.439C118.772 102.439 119.137 120.003 118.772 121.712C118.407 123.422 117.057 126.331 114.028 127.167" stroke="#142A51" stroke-width="0.5"/>
<path opacity="0.28" d="M118.407 102.439C118.407 102.439 118.772 120.003 118.407 121.712C118.042 123.422 116.692 126.331 113.663 127.167" stroke="#962038" stroke-width="0.5"/>
<path d="M117.677 105.676C117.677 105.676 118.042 120.949 117.677 122.44C117.313 123.931 115.962 126.44 112.934 127.167" stroke="white" stroke-width="0.5"/>
<path opacity="0.14" d="M122.75 149.713C125.41 149.713 127.567 147.564 127.567 144.913C127.567 142.262 125.41 140.113 122.75 140.113C120.089 140.113 117.933 142.262 117.933 144.913C117.933 147.564 120.089 149.713 122.75 149.713Z" stroke="#142A51" stroke-width="0.5"/>
<path opacity="0.14" d="M128.26 148.113C128.26 148.113 126.435 149.823 126.143 156.477C125.851 163.132 126.143 170.769 126.143 170.769" stroke="#142A51" stroke-width="0.5"/>
<path opacity="0.14" d="M115.853 149.095C115.853 149.095 118.152 151.531 117.933 155.059C117.677 158.586 117.933 169.351 117.933 169.351" stroke="#142A51" stroke-width="0.5"/>
<path fill-rule="evenodd" clip-rule="evenodd" d="M135.849 188.276H108.19C107.934 188.276 107.715 187.957 107.715 187.586V186.949C107.715 186.578 107.934 186.259 108.19 186.259H135.849C136.105 186.259 136.324 186.578 136.324 186.949V187.586C136.324 187.957 136.142 188.276 135.849 188.276Z" fill="#333435"/>
<path fill-rule="evenodd" clip-rule="evenodd" d="M139.792 188.276H137.565C137.309 188.276 137.09 187.957 137.09 187.586V186.949C137.09 186.578 137.309 186.259 137.565 186.259H139.792C140.047 186.259 140.265 186.578 140.265 186.949V187.586C140.302 187.957 140.083 188.276 139.792 188.276Z" fill="#333435"/>
<path opacity="0.26" fill-rule="evenodd" clip-rule="evenodd" d="M135.849 186.187H108.19C107.934 186.187 107.715 185.969 107.715 185.714V185.278C107.715 185.023 107.934 184.805 108.19 184.805H135.849C136.105 184.805 136.324 185.023 136.324 185.278V185.714C136.324 185.969 136.142 186.187 135.849 186.187Z" fill="#962038"/>
<path opacity="0.26" fill-rule="evenodd" clip-rule="evenodd" d="M139.792 186.187H137.565C137.309 186.187 137.09 185.969 137.09 185.714V185.278C137.09 185.023 137.309 184.805 137.565 184.805H139.792C140.047 184.805 140.265 185.023 140.265 185.278V185.714C140.302 185.969 140.083 186.187 139.792 186.187Z" fill="#962038"/>
<path fill-rule="evenodd" clip-rule="evenodd" d="M99.286 192.37H150.848C152.089 192.37 153.293 192.732 154.242 193.46C155.372 194.333 156.504 195.86 156.358 198.478C156.176 201.715 153.913 203.024 152.234 203.57C151.906 203.679 151.906 204.15 152.234 204.261C153.987 204.843 156.358 206.37 156.358 210.261C156.358 213.425 154.314 214.915 152.708 215.57C152.125 215.824 152.089 216.587 152.599 216.915C154.278 217.896 156.54 219.86 156.321 223.316C156.212 224.952 155.519 226.224 154.642 227.169C153.219 228.661 151.212 229.461 149.133 229.461H100.162C98.1183 229.461 96.1477 228.552 94.9435 226.879C94.2137 225.862 93.6664 224.478 93.7758 222.625C93.9583 219.097 96.3302 217.642 97.9357 217.024C98.3736 216.879 98.3736 216.261 97.9723 216.079C96.2572 215.278 93.7394 213.461 93.7394 209.896C93.7394 206.66 95.9287 205.169 97.6804 204.515C98.1912 204.333 98.1912 203.606 97.6804 203.423C95.8193 202.66 93.4109 200.988 93.7394 197.169C93.9583 191.969 99.286 192.37 99.286 192.37Z" fill="#962038" stroke="#333435" stroke-width="1.5"/>
<path opacity="0.17" fill-rule="evenodd" clip-rule="evenodd" d="M101.654 193.097H150.194C150.194 193.097 154.565 194.005 154.282 198.915C154.141 201.751 152.343 203.024 150.863 203.606C150.44 203.751 150.44 204.37 150.828 204.551C152.379 205.169 154.282 206.66 154.282 210.116C154.282 213.06 152.449 214.478 150.969 215.133C150.405 215.388 150.37 216.152 150.898 216.478C152.449 217.425 154.458 219.316 154.282 222.515C154.106 225.534 151.815 227.171 150.405 227.898C149.805 228.188 149.171 228.37 148.501 228.37H100.913C100.913 228.37 96.2601 226.952 96.5422 221.86C96.7184 218.625 98.7981 217.206 100.279 216.624C100.702 216.442 100.737 215.824 100.314 215.606C98.7629 214.806 96.5069 213.097 96.5422 209.788C96.5422 206.478 98.9039 205.097 100.561 204.551C100.913 204.442 100.913 203.896 100.561 203.788C98.7981 203.133 96.2249 201.534 96.5422 197.679C96.7184 192.769 101.654 193.097 101.654 193.097Z" stroke="#1D2128" stroke-width="1.5"/>
<path fill-rule="evenodd" clip-rule="evenodd" d="M107.241 232.734H143.258C143.841 232.734 144.133 233.388 143.805 233.862C141.688 236.444 135.558 242.661 125.122 242.989C115.087 242.989 108.847 236.516 106.73 233.862C106.329 233.388 106.657 232.734 107.241 232.734Z" fill="#962038" stroke="#333435" stroke-width="1.5"/>
<path opacity="0.26" fill-rule="evenodd" clip-rule="evenodd" d="M142.237 233.57C142.784 233.57 143.075 232.808 142.71 233.172C140.739 235.39 135.083 240.699 125.377 240.991C116.072 240.991 110.27 235.462 108.336 233.172C108.007 232.771 108.299 233.57 108.847 233.57H142.237Z" fill="#962038" stroke="#333435" stroke-width="1.5"/>
<path fill-rule="evenodd" clip-rule="evenodd" d="M145.265 206.587H107.168C105.344 206.587 103.884 205.133 103.884 203.315V202.915C103.884 201.097 105.344 199.642 107.168 199.642H145.265C147.089 199.642 148.548 201.097 148.548 202.915V203.315C148.548 205.133 147.089 206.587 145.265 206.587Z" fill="white"/>
<path fill-rule="evenodd" clip-rule="evenodd" d="M136.251 220.625H107.205C105.38 220.625 103.92 219.169 103.92 217.352V216.952C103.92 215.133 105.38 213.679 107.205 213.679H136.251C138.077 213.679 139.535 215.133 139.535 216.952V217.352C139.535 219.133 138.039 220.625 136.251 220.625Z" fill="white"/>
<path opacity="0.31" fill-rule="evenodd" clip-rule="evenodd" d="M136.69 222.714H106.511C106.146 222.714 105.854 222.265 105.854 221.706C105.854 221.145 106.146 220.698 106.511 220.698H136.69C137.054 220.698 137.347 221.145 137.347 221.706C137.347 222.265 137.054 222.714 136.69 222.714Z" fill="#2D2D2D"/>
<path opacity="0.31" fill-rule="evenodd" clip-rule="evenodd" d="M145.667 208.531H106.548C106.183 208.531 105.891 208.083 105.891 207.523C105.891 206.962 106.183 206.515 106.548 206.515H145.667C146.031 206.515 146.323 206.962 146.323 207.523C146.323 208.083 145.995 208.531 145.667 208.531Z" fill="#2D2D2D"/>
<path d="M149.68 195.097C149.68 195.097 151.504 195.751 151.323 198.37" stroke="white" stroke-width="1.5" stroke-linecap="round"/>
<path d="M151.286 224.406C151.286 224.406 150.921 226.297 148.257 226.478" stroke="white" stroke-width="1.5" stroke-linecap="round"/>
<path d="M137.304 235.79C137.304 235.79 134.202 238.445 128.692 239.317" stroke="white" stroke-width="1.5" stroke-linecap="round"/>
<path d="M163.911 172.586C163.911 172.586 163.511 185.824 149.68 186.259" stroke="#333435" stroke-width="1.5" stroke-linecap="round"/>
<path opacity="0.28" d="M92.9 86.4388L100.344 89.3116C100.344 89.3116 101.585 92.0026 101.731 94.8754C101.877 97.7483 103.264 106.367 103.264 106.367L109.577 113.64C109.577 113.64 110.927 114.731 112.313 111.349C113.7 107.967 123.37 91.6026 123.37 91.6026C123.37 91.6026 124.355 89.348 127.275 89.6753L147.71 87.9661C147.71 87.9661 149.497 88.6207 151.797 85.057C154.095 81.4931 158.366 73.3112 162.488 67.7837C167.196 62.8382 172.816 58.9472 172.816 58.9472C172.816 58.9472 174.567 57.9653 176.94 58.4016C179.493 58.547 181.683 56.1833 181.975 55.5652C182.559 54.256 184.347 43.2012 184.347 43.2012C184.347 43.2012 184.311 38.2919 183.726 35.9282" stroke="#962038" stroke-width="1.08"/>
<path opacity="0.3" d="M179.165 2.54553C179.165 2.54553 192.484 17.0187 197.629 33.9282C197.812 34.4737 197.995 35.0192 198.176 35.5647C203.54 50.6196 201.315 64.9473 200.876 67.5292L200.804 68.1473C200.731 68.5837 200.695 68.8019 200.659 69.2383C200.476 72.5475 198.578 83.8933 192.958 93.0935C192.594 93.6754 192.229 94.2936 191.901 94.9118C185.624 106.658 177.304 121.385 177.304 121.385" stroke="#962038" stroke-width="1.08"/>
<path opacity="0.28" d="M93.9218 87.2751L95.0165 83.2751L119.247 72.2565C119.247 72.2565 121.217 71.5293 122.093 68.8018C123.005 66.0745 128.187 46.8013 128.187 46.8013C128.187 46.8013 128.661 45.7103 129.938 44.6922C131.216 43.6739 149.461 27.9643 149.461 27.9643C149.461 27.9643 150.556 27.1281 151.031 28.4371C151.504 29.7462 163.437 49.165 163.437 49.165C163.437 49.165 165.007 51.6377 166.831 50.8014C168.656 49.965 183.251 37.1646 183.251 37.1646" stroke="#962038" stroke-width="1.08"/>
<path opacity="0.46" d="M129.792 92.6571C129.792 92.6571 127.311 99.4937 125.487 99.4937" stroke="#142A51" stroke-opacity="0.24" stroke-width="0.54"/>
<path opacity="0.5" fill-rule="evenodd" clip-rule="evenodd" d="M159.715 121.349C159.715 121.349 155.153 132.185 155.008 136.622C155.044 141.095 155.008 151.531 155.008 151.531C155.008 151.531 154.059 136.258 154.351 133.64C154.642 131.131 156.321 126.222 159.715 121.349Z" fill="#E5E5E5"/>
<path opacity="0.12" fill-rule="evenodd" clip-rule="evenodd" d="M160.811 121.349C160.811 121.349 156.249 132.185 156.102 136.622C156.138 141.095 156.102 151.531 156.102 151.531C156.102 151.531 155.153 136.258 155.446 133.64C155.738 131.131 157.417 126.222 160.811 121.349Z" fill="#962038"/>
<path opacity="0.47" fill-rule="evenodd" clip-rule="evenodd" d="M192.375 65.6746C192.375 65.6746 191.024 84.8751 176.172 106.112C161.358 127.385 187.266 92.8389 192.375 65.6746Z" fill="#E8E9EA"/>
<path opacity="0.35" fill-rule="evenodd" clip-rule="evenodd" d="M82.2812 162.805C82.2812 162.805 80.3106 179.641 94.0677 181.786C94.6516 182.114 81.5879 178.914 82.2812 162.805Z" fill="#962038"/>
<path opacity="0.22" fill-rule="evenodd" clip-rule="evenodd" d="M83.011 162.441C83.011 162.441 81.0405 179.278 94.7976 181.423C95.3815 181.75 82.3176 178.551 83.011 162.441Z" fill="#962038"/>
<path fill-rule="evenodd" clip-rule="evenodd" d="M109.54 114.149C109.321 114.076 104.906 100.548 104.906 100.548L99.8699 84.9478L96.3303 73.7838L95.0895 70.0747C95.0895 70.0747 100.381 69.9293 104.468 66.22C105.636 65.2381 105.781 64.5109 105.781 64.5109C105.781 64.5109 102.169 69.4564 95.0895 69.5656C94.8706 69.3837 94.1043 66.3654 92.7906 67.4564C92.4987 68.3656 93.265 72.9111 93.9948 74.4021C94.7246 75.893 94.7976 76.8021 94.7976 76.8021H96.0018C96.0018 76.8021 97.9359 83.3478 98.3008 84.2933C98.6656 85.2387 102.607 97.5664 102.826 98.0755C103.045 98.5845 107.351 111.749 107.46 112.039C107.57 112.221 108.153 112.876 108.372 113.203" fill="#9AAAC1"/>
<path opacity="0.12" fill-rule="evenodd" clip-rule="evenodd" d="M111.255 114.44C111.036 114.367 106.475 100.767 106.475 100.767L101.256 85.0933L97.6074 73.893L96.3303 70.1475C96.3303 70.1475 102.607 69.0565 105.161 65.7473C105.417 65.4927 105.636 64.6927 105.636 64.6927C105.636 64.6927 103.191 68.911 96.2937 69.5656C96.0748 69.3837 95.2721 66.3655 93.9584 67.4565C93.6664 68.3656 94.5057 72.9474 95.2355 74.4384C95.9654 75.9294 96.0748 76.8386 96.0748 76.8386H97.2791C97.2791 76.8386 99.2861 83.4206 99.651 84.366C100.016 85.3114 104.066 97.7118 104.322 98.1845C104.541 98.6937 108.956 111.894 109.102 112.185C109.212 112.367 109.795 113.021 110.014 113.349" fill="#962038"/>
<path opacity="0.22" d="M106.73 58.0381C106.73 58.0381 106.146 63.3109 106.584 64.8746C107.059 66.4019 111.766 88.0389 111.948 88.2935C112.094 88.5116 113.882 94.1845 115.524 97.0937C116.108 98.1119 117.057 98.9119 118.188 99.2392C118.736 99.421 119.611 99.421 119.611 99.421" stroke="#962038" stroke-width="0.54"/>
<path opacity="0.22" d="M107.46 65.6382C107.46 65.6382 119.137 70.1838 119.684 70.2566C120.232 70.3293 125.45 70.9839 125.45 70.9839" stroke="#962038" stroke-width="0.54"/>
</g>
<defs>
<clipPath id="clip0">
<rect width="250" height="250" fill="white"/>
</clipPath>
</defs>
</svg>
